<mxfile host="app.diagrams.net" modified="2023-07-30T13:19:34.123Z" agent="Mozilla/5.0 (Windows NT 10.0; Win64; x64) AppleWebKit/537.36 (KHTML, like Gecko) Chrome/115.0.0.0 Safari/537.36" etag="JZeOL8GT3mzeeoU7m4Pz" version="21.6.6" type="github">
  <diagram name="Page-1" id="qE-UySCiM_zAtCRFpwRg">
    <mxGraphModel dx="2868" dy="1580" grid="1" gridSize="10" guides="1" tooltips="1" connect="1" arrows="1" fold="1" page="1" pageScale="1" pageWidth="3000" pageHeight="3000" math="0" shadow="0">
      <root>
        <mxCell id="0" />
        <mxCell id="1" parent="0" />
        <mxCell id="vFInMMs2sa7jWwvW7ep4-281" value="" style="endArrow=none;html=1;rounded=0;strokeWidth=2;" parent="1" source="vFInMMs2sa7jWwvW7ep4-254" target="vFInMMs2sa7jWwvW7ep4-263" edge="1">
          <mxGeometry width="50" height="50" relative="1" as="geometry">
            <mxPoint x="1092" y="1299" as="sourcePoint" />
            <mxPoint x="1013" y="1299" as="targetPoint" />
          </mxGeometry>
        </mxCell>
        <mxCell id="vFInMMs2sa7jWwvW7ep4-280" value="" style="endArrow=none;html=1;rounded=0;strokeWidth=2;" parent="1" source="vFInMMs2sa7jWwvW7ep4-255" target="vFInMMs2sa7jWwvW7ep4-261" edge="1">
          <mxGeometry width="50" height="50" relative="1" as="geometry">
            <mxPoint x="1082" y="1289" as="sourcePoint" />
            <mxPoint x="1003" y="1289" as="targetPoint" />
          </mxGeometry>
        </mxCell>
        <mxCell id="vFInMMs2sa7jWwvW7ep4-279" value="" style="endArrow=none;html=1;rounded=0;strokeWidth=2;" parent="1" source="vFInMMs2sa7jWwvW7ep4-256" target="vFInMMs2sa7jWwvW7ep4-259" edge="1">
          <mxGeometry width="50" height="50" relative="1" as="geometry">
            <mxPoint x="1070" y="1231.08" as="sourcePoint" />
            <mxPoint x="843" y="1231.08" as="targetPoint" />
          </mxGeometry>
        </mxCell>
        <mxCell id="vFInMMs2sa7jWwvW7ep4-246" value="" style="rounded=0;whiteSpace=wrap;html=1;fillColor=none;" parent="1" vertex="1">
          <mxGeometry x="370" y="841" width="348.14" height="60" as="geometry" />
        </mxCell>
        <mxCell id="vFInMMs2sa7jWwvW7ep4-240" value="" style="rounded=0;whiteSpace=wrap;html=1;fillColor=none;" parent="1" vertex="1">
          <mxGeometry x="280" y="630" width="790" height="470" as="geometry" />
        </mxCell>
        <mxCell id="vFInMMs2sa7jWwvW7ep4-243" value="" style="rounded=0;whiteSpace=wrap;html=1;fillColor=none;" parent="1" vertex="1">
          <mxGeometry x="302.15" y="700.5" width="418.85" height="202.5" as="geometry" />
        </mxCell>
        <mxCell id="vFInMMs2sa7jWwvW7ep4-208" value="" style="endArrow=none;html=1;rounded=0;strokeWidth=2;" parent="1" source="vFInMMs2sa7jWwvW7ep4-140" target="vFInMMs2sa7jWwvW7ep4-158" edge="1">
          <mxGeometry width="50" height="50" relative="1" as="geometry">
            <mxPoint x="667" y="935" as="sourcePoint" />
            <mxPoint x="440" y="935" as="targetPoint" />
          </mxGeometry>
        </mxCell>
        <mxCell id="vFInMMs2sa7jWwvW7ep4-209" value="" style="endArrow=none;html=1;rounded=0;strokeWidth=2;" parent="1" source="vFInMMs2sa7jWwvW7ep4-139" target="vFInMMs2sa7jWwvW7ep4-153" edge="1">
          <mxGeometry width="50" height="50" relative="1" as="geometry">
            <mxPoint x="677" y="945" as="sourcePoint" />
            <mxPoint x="450" y="945" as="targetPoint" />
          </mxGeometry>
        </mxCell>
        <mxCell id="vFInMMs2sa7jWwvW7ep4-204" value="" style="endArrow=none;html=1;rounded=0;strokeWidth=2;" parent="1" source="vFInMMs2sa7jWwvW7ep4-138" target="vFInMMs2sa7jWwvW7ep4-148" edge="1">
          <mxGeometry width="50" height="50" relative="1" as="geometry">
            <mxPoint x="908" y="647" as="sourcePoint" />
            <mxPoint x="800" y="700" as="targetPoint" />
          </mxGeometry>
        </mxCell>
        <mxCell id="vFInMMs2sa7jWwvW7ep4-207" value="" style="endArrow=none;html=1;rounded=0;strokeWidth=2;" parent="1" source="vFInMMs2sa7jWwvW7ep4-170" target="vFInMMs2sa7jWwvW7ep4-175" edge="1">
          <mxGeometry width="50" height="50" relative="1" as="geometry">
            <mxPoint x="667" y="807" as="sourcePoint" />
            <mxPoint x="366" y="807" as="targetPoint" />
          </mxGeometry>
        </mxCell>
        <mxCell id="vFInMMs2sa7jWwvW7ep4-205" value="" style="endArrow=none;html=1;rounded=0;strokeWidth=2;" parent="1" source="vFInMMs2sa7jWwvW7ep4-164" target="vFInMMs2sa7jWwvW7ep4-194" edge="1">
          <mxGeometry width="50" height="50" relative="1" as="geometry">
            <mxPoint x="918" y="657" as="sourcePoint" />
            <mxPoint x="810" y="710" as="targetPoint" />
          </mxGeometry>
        </mxCell>
        <mxCell id="vFInMMs2sa7jWwvW7ep4-206" value="" style="endArrow=none;html=1;rounded=0;strokeWidth=2;" parent="1" source="vFInMMs2sa7jWwvW7ep4-133" target="vFInMMs2sa7jWwvW7ep4-193" edge="1">
          <mxGeometry width="50" height="50" relative="1" as="geometry">
            <mxPoint x="928" y="667" as="sourcePoint" />
            <mxPoint x="820" y="720" as="targetPoint" />
          </mxGeometry>
        </mxCell>
        <mxCell id="vFInMMs2sa7jWwvW7ep4-110" value="" style="rounded=0;whiteSpace=wrap;html=1;fillColor=none;" parent="1" vertex="1">
          <mxGeometry x="1133" y="230" width="705" height="420" as="geometry" />
        </mxCell>
        <mxCell id="vFInMMs2sa7jWwvW7ep4-107" value="" style="rounded=0;whiteSpace=wrap;html=1;fillColor=none;" parent="1" vertex="1">
          <mxGeometry x="1450" y="243" width="373" height="123" as="geometry" />
        </mxCell>
        <mxCell id="vFInMMs2sa7jWwvW7ep4-106" value="" style="rounded=0;whiteSpace=wrap;html=1;fillColor=none;" parent="1" vertex="1">
          <mxGeometry x="1442" y="240" width="388" height="270" as="geometry" />
        </mxCell>
        <mxCell id="vFInMMs2sa7jWwvW7ep4-108" value="" style="rounded=0;whiteSpace=wrap;html=1;fillColor=none;" parent="1" vertex="1">
          <mxGeometry x="1450" y="370" width="373" height="137" as="geometry" />
        </mxCell>
        <mxCell id="vFInMMs2sa7jWwvW7ep4-4" value="" style="shape=mxgraph.cisco.routers.router;html=1;pointerEvents=1;dashed=0;fillColor=#036897;strokeColor=#ffffff;strokeWidth=1;verticalLabelPosition=bottom;verticalAlign=top;align=center;outlineConnect=0;" parent="1" vertex="1">
          <mxGeometry x="1270" y="550" width="33.85" height="23" as="geometry" />
        </mxCell>
        <mxCell id="vFInMMs2sa7jWwvW7ep4-6" value="" style="shape=mxgraph.cisco.switches.layer_3_switch;html=1;pointerEvents=1;dashed=0;fillColor=#036897;strokeColor=#ffffff;strokeWidth=1;verticalLabelPosition=bottom;verticalAlign=top;align=center;outlineConnect=0;" parent="1" vertex="1">
          <mxGeometry x="1240" y="490" width="30" height="30" as="geometry" />
        </mxCell>
        <mxCell id="vFInMMs2sa7jWwvW7ep4-7" value="" style="shape=mxgraph.cisco.security.ios_firewall;html=1;pointerEvents=1;dashed=0;fillColor=#036897;strokeColor=#ffffff;strokeWidth=1;verticalLabelPosition=bottom;verticalAlign=top;align=center;outlineConnect=0;" parent="1" vertex="1">
          <mxGeometry x="1274.81" y="600" width="24.24" height="40" as="geometry" />
        </mxCell>
        <object label="" id="vFInMMs2sa7jWwvW7ep4-11">
          <mxCell style="shape=mxgraph.cisco.security.ios_firewall;html=1;pointerEvents=1;dashed=0;fillColor=#036897;strokeColor=#ffffff;strokeWidth=1;verticalLabelPosition=bottom;verticalAlign=top;align=center;outlineConnect=0;" parent="1" vertex="1">
            <mxGeometry x="1355.81" y="600" width="24.24" height="40" as="geometry" />
          </mxCell>
        </object>
        <mxCell id="vFInMMs2sa7jWwvW7ep4-12" value="" style="shape=mxgraph.cisco.routers.router;html=1;pointerEvents=1;dashed=0;fillColor=#036897;strokeColor=#ffffff;strokeWidth=1;verticalLabelPosition=bottom;verticalAlign=top;align=center;outlineConnect=0;" parent="1" vertex="1">
          <mxGeometry x="1351" y="550" width="33.85" height="23" as="geometry" />
        </mxCell>
        <mxCell id="vFInMMs2sa7jWwvW7ep4-13" value="" style="shape=mxgraph.cisco.switches.layer_3_switch;html=1;pointerEvents=1;dashed=0;fillColor=#036897;strokeColor=#ffffff;strokeWidth=1;verticalLabelPosition=bottom;verticalAlign=top;align=center;outlineConnect=0;" parent="1" vertex="1">
          <mxGeometry x="1313.85" y="490" width="30" height="30" as="geometry" />
        </mxCell>
        <mxCell id="vFInMMs2sa7jWwvW7ep4-14" value="" style="shape=mxgraph.cisco.switches.layer_3_switch;html=1;pointerEvents=1;dashed=0;fillColor=#036897;strokeColor=#ffffff;strokeWidth=1;verticalLabelPosition=bottom;verticalAlign=top;align=center;outlineConnect=0;" parent="1" vertex="1">
          <mxGeometry x="1389.85" y="490" width="30" height="30" as="geometry" />
        </mxCell>
        <mxCell id="vFInMMs2sa7jWwvW7ep4-17" value="" style="shape=mxgraph.cisco.computers_and_peripherals.pc;html=1;pointerEvents=1;dashed=0;fillColor=#036897;strokeColor=#ffffff;strokeWidth=1;verticalLabelPosition=bottom;verticalAlign=top;align=center;outlineConnect=0;" parent="1" vertex="1">
          <mxGeometry x="1272.62" y="306" width="33.43" height="30" as="geometry" />
        </mxCell>
        <mxCell id="vFInMMs2sa7jWwvW7ep4-18" value="" style="shape=mxgraph.cisco.switches.layer_2_remote_switch;html=1;pointerEvents=1;dashed=0;fillColor=#036897;strokeColor=#ffffff;strokeWidth=1;verticalLabelPosition=bottom;verticalAlign=top;align=center;outlineConnect=0;" parent="1" vertex="1">
          <mxGeometry x="1266.73" y="450" width="40.4" height="20" as="geometry" />
        </mxCell>
        <mxCell id="vFInMMs2sa7jWwvW7ep4-19" value="" style="shape=mxgraph.cisco.switches.layer_2_remote_switch;html=1;pointerEvents=1;dashed=0;fillColor=#036897;strokeColor=#ffffff;strokeWidth=1;verticalLabelPosition=bottom;verticalAlign=top;align=center;outlineConnect=0;" parent="1" vertex="1">
          <mxGeometry x="1351" y="450" width="40.4" height="20" as="geometry" />
        </mxCell>
        <mxCell id="vFInMMs2sa7jWwvW7ep4-21" value="" style="shape=mxgraph.cisco.computers_and_peripherals.pc;html=1;pointerEvents=1;dashed=0;fillColor=#036897;strokeColor=#ffffff;strokeWidth=1;verticalLabelPosition=bottom;verticalAlign=top;align=center;outlineConnect=0;" parent="1" vertex="1">
          <mxGeometry x="1232.22" y="306" width="33.43" height="30" as="geometry" />
        </mxCell>
        <mxCell id="vFInMMs2sa7jWwvW7ep4-22" value="" style="verticalLabelPosition=bottom;sketch=0;aspect=fixed;html=1;verticalAlign=top;strokeColor=none;align=center;outlineConnect=0;shape=mxgraph.citrix.file_server;" parent="1" vertex="1">
          <mxGeometry x="1538.2800000000002" y="250" width="32.94" height="45" as="geometry" />
        </mxCell>
        <mxCell id="vFInMMs2sa7jWwvW7ep4-23" value="&lt;b&gt;&lt;font style=&quot;font-size: 7px;&quot;&gt;File Server #1&lt;/font&gt;&lt;/b&gt;" style="text;html=1;align=center;verticalAlign=middle;resizable=0;points=[];autosize=1;strokeColor=none;fillColor=none;" parent="1" vertex="1">
          <mxGeometry x="1517.92" y="286" width="70" height="30" as="geometry" />
        </mxCell>
        <mxCell id="vFInMMs2sa7jWwvW7ep4-24" value="" style="verticalLabelPosition=bottom;sketch=0;aspect=fixed;html=1;verticalAlign=top;strokeColor=none;align=center;outlineConnect=0;shape=mxgraph.citrix.file_server;" parent="1" vertex="1">
          <mxGeometry x="1539.2800000000002" y="434" width="33.94" height="45" as="geometry" />
        </mxCell>
        <mxCell id="vFInMMs2sa7jWwvW7ep4-25" value="&lt;b&gt;&lt;font style=&quot;font-size: 7px;&quot;&gt;File Server #2&lt;/font&gt;&lt;/b&gt;" style="text;html=1;align=center;verticalAlign=middle;resizable=0;points=[];autosize=1;strokeColor=none;fillColor=none;" parent="1" vertex="1">
          <mxGeometry x="1520.7500000000005" y="473" width="70" height="30" as="geometry" />
        </mxCell>
        <mxCell id="vFInMMs2sa7jWwvW7ep4-26" value="" style="verticalLabelPosition=bottom;sketch=0;aspect=fixed;html=1;verticalAlign=top;strokeColor=none;align=center;outlineConnect=0;shape=mxgraph.citrix.dhcp_server;" parent="1" vertex="1">
          <mxGeometry x="1594.3300000000002" y="251" width="37.16" height="44" as="geometry" />
        </mxCell>
        <mxCell id="vFInMMs2sa7jWwvW7ep4-27" value="&lt;b&gt;&lt;font style=&quot;font-size: 7px;&quot;&gt;DHCP Server #1&lt;/font&gt;&lt;/b&gt;" style="text;html=1;align=center;verticalAlign=middle;resizable=0;points=[];autosize=1;strokeColor=none;fillColor=none;" parent="1" vertex="1">
          <mxGeometry x="1575.91" y="288" width="80" height="30" as="geometry" />
        </mxCell>
        <mxCell id="vFInMMs2sa7jWwvW7ep4-29" value="&lt;b&gt;&lt;font style=&quot;font-size: 7px;&quot;&gt;DHCP Server #2&lt;/font&gt;&lt;/b&gt;" style="text;html=1;align=center;verticalAlign=middle;resizable=0;points=[];autosize=1;strokeColor=none;fillColor=none;" parent="1" vertex="1">
          <mxGeometry x="1573.9100000000003" y="473" width="80" height="30" as="geometry" />
        </mxCell>
        <mxCell id="vFInMMs2sa7jWwvW7ep4-30" value="" style="verticalLabelPosition=bottom;sketch=0;aspect=fixed;html=1;verticalAlign=top;strokeColor=none;align=center;outlineConnect=0;shape=mxgraph.citrix.dns_server;" parent="1" vertex="1">
          <mxGeometry x="1479.4299999999998" y="250" width="35.15" height="42.5" as="geometry" />
        </mxCell>
        <mxCell id="vFInMMs2sa7jWwvW7ep4-31" value="&lt;b&gt;&lt;font style=&quot;font-size: 7px;&quot;&gt;DNS + DC&lt;br&gt;Server #1&lt;/font&gt;&lt;/b&gt;" style="text;html=1;align=center;verticalAlign=middle;resizable=0;points=[];autosize=1;strokeColor=none;fillColor=none;" parent="1" vertex="1">
          <mxGeometry x="1463.62" y="284" width="60" height="40" as="geometry" />
        </mxCell>
        <mxCell id="vFInMMs2sa7jWwvW7ep4-32" value="" style="verticalLabelPosition=bottom;sketch=0;aspect=fixed;html=1;verticalAlign=top;strokeColor=none;align=center;outlineConnect=0;shape=mxgraph.citrix.dns_server;" parent="1" vertex="1">
          <mxGeometry x="1479.4299999999998" y="434" width="36.15" height="42.5" as="geometry" />
        </mxCell>
        <mxCell id="vFInMMs2sa7jWwvW7ep4-33" value="&lt;b&gt;&lt;font style=&quot;font-size: 7px;&quot;&gt;DNS +DC&lt;br&gt;Server #2&lt;/font&gt;&lt;/b&gt;" style="text;html=1;align=center;verticalAlign=middle;resizable=0;points=[];autosize=1;strokeColor=none;fillColor=none;" parent="1" vertex="1">
          <mxGeometry x="1468" y="468" width="60" height="40" as="geometry" />
        </mxCell>
        <mxCell id="vFInMMs2sa7jWwvW7ep4-35" value="" style="verticalLabelPosition=bottom;sketch=0;aspect=fixed;html=1;verticalAlign=top;strokeColor=none;align=center;outlineConnect=0;shape=mxgraph.citrix.dns_server;" parent="1" vertex="1">
          <mxGeometry x="1654.42" y="434" width="36.15" height="42.5" as="geometry" />
        </mxCell>
        <mxCell id="vFInMMs2sa7jWwvW7ep4-36" value="&lt;span style=&quot;font-size: 7px;&quot;&gt;&lt;b&gt;WSUS&lt;/b&gt;&lt;/span&gt;" style="text;html=1;align=center;verticalAlign=middle;resizable=0;points=[];autosize=1;strokeColor=none;fillColor=none;" parent="1" vertex="1">
          <mxGeometry x="1652" y="473" width="40" height="30" as="geometry" />
        </mxCell>
        <mxCell id="vFInMMs2sa7jWwvW7ep4-37" value="" style="verticalLabelPosition=bottom;sketch=0;aspect=fixed;html=1;verticalAlign=top;strokeColor=none;align=center;outlineConnect=0;shape=mxgraph.citrix.dns_server;" parent="1" vertex="1">
          <mxGeometry x="1712.0900000000001" y="434" width="36.15" height="42.5" as="geometry" />
        </mxCell>
        <mxCell id="vFInMMs2sa7jWwvW7ep4-38" value="&lt;span style=&quot;font-size: 7px;&quot;&gt;&lt;b&gt;WDS&lt;/b&gt;&lt;/span&gt;" style="text;html=1;align=center;verticalAlign=middle;resizable=0;points=[];autosize=1;strokeColor=none;fillColor=none;" parent="1" vertex="1">
          <mxGeometry x="1709.6600000000003" y="473" width="40" height="30" as="geometry" />
        </mxCell>
        <mxCell id="vFInMMs2sa7jWwvW7ep4-40" value="" style="verticalLabelPosition=bottom;sketch=0;aspect=fixed;html=1;verticalAlign=top;strokeColor=none;align=center;outlineConnect=0;shape=mxgraph.citrix.dns_server;" parent="1" vertex="1">
          <mxGeometry x="1655.34" y="251" width="35.15" height="42.5" as="geometry" />
        </mxCell>
        <mxCell id="vFInMMs2sa7jWwvW7ep4-41" value="&lt;span style=&quot;font-size: 7px;&quot;&gt;&lt;b&gt;DFS&lt;/b&gt;&lt;/span&gt;" style="text;html=1;align=center;verticalAlign=middle;resizable=0;points=[];autosize=1;strokeColor=none;fillColor=none;" parent="1" vertex="1">
          <mxGeometry x="1653.91" y="289.5" width="40" height="30" as="geometry" />
        </mxCell>
        <mxCell id="vFInMMs2sa7jWwvW7ep4-42" value="" style="shape=mxgraph.cisco.switches.layer_2_remote_switch;html=1;pointerEvents=1;dashed=0;fillColor=#036897;strokeColor=#ffffff;strokeWidth=1;verticalLabelPosition=bottom;verticalAlign=top;align=center;outlineConnect=0;" parent="1" vertex="1">
          <mxGeometry x="1627" y="340" width="40.4" height="20" as="geometry" />
        </mxCell>
        <mxCell id="vFInMMs2sa7jWwvW7ep4-44" value="" style="endArrow=none;html=1;rounded=0;strokeWidth=1;shape=link;" parent="1" source="vFInMMs2sa7jWwvW7ep4-19" target="vFInMMs2sa7jWwvW7ep4-42" edge="1">
          <mxGeometry width="50" height="50" relative="1" as="geometry">
            <mxPoint x="1351" y="450" as="sourcePoint" />
            <mxPoint x="1405.15" y="370" as="targetPoint" />
          </mxGeometry>
        </mxCell>
        <mxCell id="vFInMMs2sa7jWwvW7ep4-55" value="" style="endArrow=none;html=1;rounded=0;strokeWidth=1;shape=link;" parent="1" source="vFInMMs2sa7jWwvW7ep4-18" target="vFInMMs2sa7jWwvW7ep4-19" edge="1">
          <mxGeometry width="50" height="50" relative="1" as="geometry">
            <mxPoint x="1396" y="460" as="sourcePoint" />
            <mxPoint x="1477" y="410" as="targetPoint" />
          </mxGeometry>
        </mxCell>
        <mxCell id="vFInMMs2sa7jWwvW7ep4-56" value="" style="endArrow=none;html=1;rounded=0;strokeWidth=1;shape=link;" parent="1" source="vFInMMs2sa7jWwvW7ep4-13" target="vFInMMs2sa7jWwvW7ep4-19" edge="1">
          <mxGeometry width="50" height="50" relative="1" as="geometry">
            <mxPoint x="1317" y="470" as="sourcePoint" />
            <mxPoint x="1355" y="470" as="targetPoint" />
          </mxGeometry>
        </mxCell>
        <mxCell id="vFInMMs2sa7jWwvW7ep4-57" value="" style="endArrow=none;html=1;rounded=0;strokeWidth=1;shape=link;" parent="1" source="vFInMMs2sa7jWwvW7ep4-14" target="vFInMMs2sa7jWwvW7ep4-19" edge="1">
          <mxGeometry width="50" height="50" relative="1" as="geometry">
            <mxPoint x="1389.8533333333335" y="490" as="sourcePoint" />
            <mxPoint x="1372.431111111111" y="470" as="targetPoint" />
          </mxGeometry>
        </mxCell>
        <mxCell id="vFInMMs2sa7jWwvW7ep4-58" value="" style="endArrow=none;html=1;rounded=0;strokeWidth=1;shape=link;" parent="1" source="vFInMMs2sa7jWwvW7ep4-18" target="vFInMMs2sa7jWwvW7ep4-13" edge="1">
          <mxGeometry width="50" height="50" relative="1" as="geometry">
            <mxPoint x="1337" y="490" as="sourcePoint" />
            <mxPoint x="1375" y="490" as="targetPoint" />
          </mxGeometry>
        </mxCell>
        <mxCell id="vFInMMs2sa7jWwvW7ep4-59" value="" style="endArrow=none;html=1;rounded=0;strokeWidth=1;shape=link;" parent="1" source="vFInMMs2sa7jWwvW7ep4-6" target="vFInMMs2sa7jWwvW7ep4-13" edge="1">
          <mxGeometry width="50" height="50" relative="1" as="geometry">
            <mxPoint x="1347" y="500" as="sourcePoint" />
            <mxPoint x="1385" y="500" as="targetPoint" />
          </mxGeometry>
        </mxCell>
        <mxCell id="vFInMMs2sa7jWwvW7ep4-60" value="" style="endArrow=none;html=1;rounded=0;strokeWidth=1;shape=link;" parent="1" source="vFInMMs2sa7jWwvW7ep4-13" target="vFInMMs2sa7jWwvW7ep4-14" edge="1">
          <mxGeometry width="50" height="50" relative="1" as="geometry">
            <mxPoint x="1357" y="510" as="sourcePoint" />
            <mxPoint x="1395" y="510" as="targetPoint" />
          </mxGeometry>
        </mxCell>
        <mxCell id="vFInMMs2sa7jWwvW7ep4-61" value="" style="endArrow=none;html=1;rounded=0;strokeWidth=1;shape=link;" parent="1" source="vFInMMs2sa7jWwvW7ep4-18" target="vFInMMs2sa7jWwvW7ep4-6" edge="1">
          <mxGeometry width="50" height="50" relative="1" as="geometry">
            <mxPoint x="1367" y="520" as="sourcePoint" />
            <mxPoint x="1405" y="520" as="targetPoint" />
          </mxGeometry>
        </mxCell>
        <mxCell id="vFInMMs2sa7jWwvW7ep4-62" value="" style="shape=mxgraph.cisco.switches.layer_2_remote_switch;html=1;pointerEvents=1;dashed=0;fillColor=#036897;strokeColor=#ffffff;strokeWidth=1;verticalLabelPosition=bottom;verticalAlign=top;align=center;outlineConnect=0;" parent="1" vertex="1">
          <mxGeometry x="1170" y="385" width="40.4" height="20" as="geometry" />
        </mxCell>
        <mxCell id="vFInMMs2sa7jWwvW7ep4-63" value="" style="endArrow=none;html=1;rounded=0;strokeWidth=1;shape=link;" parent="1" source="vFInMMs2sa7jWwvW7ep4-18" target="vFInMMs2sa7jWwvW7ep4-62" edge="1">
          <mxGeometry width="50" height="50" relative="1" as="geometry">
            <mxPoint x="1396" y="460" as="sourcePoint" />
            <mxPoint x="1477" y="410" as="targetPoint" />
          </mxGeometry>
        </mxCell>
        <mxCell id="vFInMMs2sa7jWwvW7ep4-64" value="" style="endArrow=none;html=1;rounded=0;strokeWidth=1;shape=link;" parent="1" source="vFInMMs2sa7jWwvW7ep4-12" target="vFInMMs2sa7jWwvW7ep4-14" edge="1">
          <mxGeometry width="50" height="50" relative="1" as="geometry">
            <mxPoint x="1406" y="470" as="sourcePoint" />
            <mxPoint x="1487" y="420" as="targetPoint" />
          </mxGeometry>
        </mxCell>
        <mxCell id="vFInMMs2sa7jWwvW7ep4-65" value="" style="endArrow=none;html=1;rounded=0;strokeWidth=1;shape=link;" parent="1" source="vFInMMs2sa7jWwvW7ep4-12" target="vFInMMs2sa7jWwvW7ep4-13" edge="1">
          <mxGeometry width="50" height="50" relative="1" as="geometry">
            <mxPoint x="1416" y="480" as="sourcePoint" />
            <mxPoint x="1497" y="430" as="targetPoint" />
          </mxGeometry>
        </mxCell>
        <mxCell id="vFInMMs2sa7jWwvW7ep4-66" value="" style="endArrow=none;html=1;rounded=0;strokeWidth=1;shape=link;" parent="1" source="vFInMMs2sa7jWwvW7ep4-4" target="vFInMMs2sa7jWwvW7ep4-13" edge="1">
          <mxGeometry width="50" height="50" relative="1" as="geometry">
            <mxPoint x="1426" y="490" as="sourcePoint" />
            <mxPoint x="1507" y="440" as="targetPoint" />
          </mxGeometry>
        </mxCell>
        <mxCell id="vFInMMs2sa7jWwvW7ep4-67" value="" style="endArrow=none;html=1;rounded=0;strokeWidth=1;shape=link;" parent="1" source="vFInMMs2sa7jWwvW7ep4-6" target="vFInMMs2sa7jWwvW7ep4-4" edge="1">
          <mxGeometry width="50" height="50" relative="1" as="geometry">
            <mxPoint x="1436" y="500" as="sourcePoint" />
            <mxPoint x="1517" y="450" as="targetPoint" />
          </mxGeometry>
        </mxCell>
        <mxCell id="vFInMMs2sa7jWwvW7ep4-68" value="" style="endArrow=none;html=1;rounded=0;strokeWidth=1;shape=link;" parent="1" source="vFInMMs2sa7jWwvW7ep4-12" target="vFInMMs2sa7jWwvW7ep4-11" edge="1">
          <mxGeometry width="50" height="50" relative="1" as="geometry">
            <mxPoint x="1446" y="510" as="sourcePoint" />
            <mxPoint x="1527" y="460" as="targetPoint" />
          </mxGeometry>
        </mxCell>
        <mxCell id="vFInMMs2sa7jWwvW7ep4-69" value="" style="endArrow=none;html=1;rounded=0;strokeWidth=1;shape=link;" parent="1" source="vFInMMs2sa7jWwvW7ep4-4" target="vFInMMs2sa7jWwvW7ep4-12" edge="1">
          <mxGeometry width="50" height="50" relative="1" as="geometry">
            <mxPoint x="1456" y="520" as="sourcePoint" />
            <mxPoint x="1537" y="470" as="targetPoint" />
          </mxGeometry>
        </mxCell>
        <mxCell id="vFInMMs2sa7jWwvW7ep4-70" value="" style="endArrow=none;html=1;rounded=0;strokeWidth=1;shape=link;entryX=0.5;entryY=1;entryDx=0;entryDy=0;entryPerimeter=0;" parent="1" source="vFInMMs2sa7jWwvW7ep4-7" target="vFInMMs2sa7jWwvW7ep4-4" edge="1">
          <mxGeometry width="50" height="50" relative="1" as="geometry">
            <mxPoint x="1466" y="530" as="sourcePoint" />
            <mxPoint x="1547" y="480" as="targetPoint" />
          </mxGeometry>
        </mxCell>
        <mxCell id="vFInMMs2sa7jWwvW7ep4-71" value="" style="endArrow=none;html=1;rounded=0;strokeWidth=1;shape=link;" parent="1" source="vFInMMs2sa7jWwvW7ep4-7" target="vFInMMs2sa7jWwvW7ep4-12" edge="1">
          <mxGeometry width="50" height="50" relative="1" as="geometry">
            <mxPoint x="1476" y="540" as="sourcePoint" />
            <mxPoint x="1557" y="490" as="targetPoint" />
          </mxGeometry>
        </mxCell>
        <mxCell id="vFInMMs2sa7jWwvW7ep4-72" value="" style="shape=mxgraph.cisco.computers_and_peripherals.pc;html=1;pointerEvents=1;dashed=0;fillColor=#036897;strokeColor=#ffffff;strokeWidth=1;verticalLabelPosition=bottom;verticalAlign=top;align=center;outlineConnect=0;" parent="1" vertex="1">
          <mxGeometry x="1193.02" y="306" width="33.43" height="30" as="geometry" />
        </mxCell>
        <mxCell id="vFInMMs2sa7jWwvW7ep4-73" value="" style="shape=mxgraph.cisco.computers_and_peripherals.pc;html=1;pointerEvents=1;dashed=0;fillColor=#036897;strokeColor=#ffffff;strokeWidth=1;verticalLabelPosition=bottom;verticalAlign=top;align=center;outlineConnect=0;" parent="1" vertex="1">
          <mxGeometry x="1152.62" y="306" width="33.43" height="30" as="geometry" />
        </mxCell>
        <mxCell id="vFInMMs2sa7jWwvW7ep4-76" value="" style="endArrow=none;html=1;rounded=0;strokeWidth=1;shape=link;" parent="1" source="vFInMMs2sa7jWwvW7ep4-11" target="vFInMMs2sa7jWwvW7ep4-4" edge="1">
          <mxGeometry width="50" height="50" relative="1" as="geometry">
            <mxPoint x="1309" y="621" as="sourcePoint" />
            <mxPoint x="1362" y="583" as="targetPoint" />
          </mxGeometry>
        </mxCell>
        <mxCell id="vFInMMs2sa7jWwvW7ep4-81" value="" style="endArrow=none;html=1;rounded=0;" parent="1" source="vFInMMs2sa7jWwvW7ep4-86" target="vFInMMs2sa7jWwvW7ep4-17" edge="1">
          <mxGeometry width="50" height="50" relative="1" as="geometry">
            <mxPoint x="1497" y="396" as="sourcePoint" />
            <mxPoint x="1467" y="266" as="targetPoint" />
          </mxGeometry>
        </mxCell>
        <mxCell id="vFInMMs2sa7jWwvW7ep4-82" value="" style="endArrow=none;html=1;rounded=0;" parent="1" source="vFInMMs2sa7jWwvW7ep4-86" target="vFInMMs2sa7jWwvW7ep4-21" edge="1">
          <mxGeometry width="50" height="50" relative="1" as="geometry">
            <mxPoint x="1245" y="396" as="sourcePoint" />
            <mxPoint x="1287" y="346" as="targetPoint" />
          </mxGeometry>
        </mxCell>
        <mxCell id="vFInMMs2sa7jWwvW7ep4-83" value="" style="endArrow=none;html=1;rounded=0;" parent="1" source="vFInMMs2sa7jWwvW7ep4-62" target="vFInMMs2sa7jWwvW7ep4-72" edge="1">
          <mxGeometry width="50" height="50" relative="1" as="geometry">
            <mxPoint x="1255" y="406" as="sourcePoint" />
            <mxPoint x="1297" y="356" as="targetPoint" />
          </mxGeometry>
        </mxCell>
        <mxCell id="vFInMMs2sa7jWwvW7ep4-84" value="" style="endArrow=none;html=1;rounded=0;" parent="1" source="vFInMMs2sa7jWwvW7ep4-62" target="vFInMMs2sa7jWwvW7ep4-73" edge="1">
          <mxGeometry width="50" height="50" relative="1" as="geometry">
            <mxPoint x="1265" y="416" as="sourcePoint" />
            <mxPoint x="1307" y="366" as="targetPoint" />
          </mxGeometry>
        </mxCell>
        <mxCell id="vFInMMs2sa7jWwvW7ep4-86" value="" style="shape=mxgraph.cisco.switches.layer_2_remote_switch;html=1;pointerEvents=1;dashed=0;fillColor=#036897;strokeColor=#ffffff;strokeWidth=1;verticalLabelPosition=bottom;verticalAlign=top;align=center;outlineConnect=0;" parent="1" vertex="1">
          <mxGeometry x="1240" y="385" width="40.4" height="20" as="geometry" />
        </mxCell>
        <mxCell id="vFInMMs2sa7jWwvW7ep4-87" value="" style="endArrow=none;html=1;rounded=0;strokeWidth=1;shape=link;" parent="1" source="vFInMMs2sa7jWwvW7ep4-18" target="vFInMMs2sa7jWwvW7ep4-86" edge="1">
          <mxGeometry width="50" height="50" relative="1" as="geometry">
            <mxPoint x="1282" y="460" as="sourcePoint" />
            <mxPoint x="1215" y="415" as="targetPoint" />
          </mxGeometry>
        </mxCell>
        <mxCell id="vFInMMs2sa7jWwvW7ep4-91" value="" style="verticalLabelPosition=bottom;sketch=0;aspect=fixed;html=1;verticalAlign=top;strokeColor=none;align=center;outlineConnect=0;shape=mxgraph.citrix.dhcp_server;" parent="1" vertex="1">
          <mxGeometry x="1595.3300000000002" y="434.5" width="38.16" height="44" as="geometry" />
        </mxCell>
        <mxCell id="vFInMMs2sa7jWwvW7ep4-92" value="" style="shape=mxgraph.cisco.switches.layer_2_remote_switch;html=1;pointerEvents=1;dashed=0;fillColor=#036897;strokeColor=#ffffff;strokeWidth=1;verticalLabelPosition=bottom;verticalAlign=top;align=center;outlineConnect=0;" parent="1" vertex="1">
          <mxGeometry x="1624" y="373" width="40.4" height="20" as="geometry" />
        </mxCell>
        <mxCell id="vFInMMs2sa7jWwvW7ep4-93" value="" style="endArrow=none;html=1;rounded=0;strokeWidth=1;shape=link;" parent="1" source="vFInMMs2sa7jWwvW7ep4-19" target="vFInMMs2sa7jWwvW7ep4-92" edge="1">
          <mxGeometry width="50" height="50" relative="1" as="geometry">
            <mxPoint x="1393" y="460" as="sourcePoint" />
            <mxPoint x="1534" y="380" as="targetPoint" />
          </mxGeometry>
        </mxCell>
        <mxCell id="vFInMMs2sa7jWwvW7ep4-94" value="" style="endArrow=none;html=1;rounded=0;opacity=40;" parent="1" source="vFInMMs2sa7jWwvW7ep4-42" target="vFInMMs2sa7jWwvW7ep4-30" edge="1">
          <mxGeometry width="50" height="50" relative="1" as="geometry">
            <mxPoint x="1587.095873015873" y="340" as="sourcePoint" />
            <mxPoint x="1319" y="346" as="targetPoint" />
          </mxGeometry>
        </mxCell>
        <mxCell id="vFInMMs2sa7jWwvW7ep4-95" value="" style="endArrow=none;html=1;rounded=0;opacity=40;" parent="1" source="vFInMMs2sa7jWwvW7ep4-42" target="vFInMMs2sa7jWwvW7ep4-22" edge="1">
          <mxGeometry width="50" height="50" relative="1" as="geometry">
            <mxPoint x="1594.3354838709677" y="340" as="sourcePoint" />
            <mxPoint x="1329" y="356" as="targetPoint" />
          </mxGeometry>
        </mxCell>
        <mxCell id="vFInMMs2sa7jWwvW7ep4-96" value="" style="endArrow=none;html=1;rounded=0;opacity=40;" parent="1" source="vFInMMs2sa7jWwvW7ep4-42" target="vFInMMs2sa7jWwvW7ep4-26" edge="1">
          <mxGeometry width="50" height="50" relative="1" as="geometry">
            <mxPoint x="1601.8506493506495" y="340" as="sourcePoint" />
            <mxPoint x="1568" y="305" as="targetPoint" />
          </mxGeometry>
        </mxCell>
        <mxCell id="vFInMMs2sa7jWwvW7ep4-97" value="" style="endArrow=none;html=1;rounded=0;opacity=40;" parent="1" source="vFInMMs2sa7jWwvW7ep4-42" target="vFInMMs2sa7jWwvW7ep4-40" edge="1">
          <mxGeometry width="50" height="50" relative="1" as="geometry">
            <mxPoint x="1609.5524115755627" y="340" as="sourcePoint" />
            <mxPoint x="1578" y="315" as="targetPoint" />
          </mxGeometry>
        </mxCell>
        <mxCell id="vFInMMs2sa7jWwvW7ep4-98" value="" style="endArrow=none;html=1;rounded=0;" parent="1" source="vFInMMs2sa7jWwvW7ep4-92" target="vFInMMs2sa7jWwvW7ep4-32" edge="1">
          <mxGeometry width="50" height="50" relative="1" as="geometry">
            <mxPoint x="1544" y="403" as="sourcePoint" />
            <mxPoint x="1536" y="348" as="targetPoint" />
          </mxGeometry>
        </mxCell>
        <mxCell id="vFInMMs2sa7jWwvW7ep4-99" value="" style="endArrow=none;html=1;rounded=0;" parent="1" source="vFInMMs2sa7jWwvW7ep4-24" target="vFInMMs2sa7jWwvW7ep4-92" edge="1">
          <mxGeometry width="50" height="50" relative="1" as="geometry">
            <mxPoint x="1554" y="413" as="sourcePoint" />
            <mxPoint x="1546" y="358" as="targetPoint" />
          </mxGeometry>
        </mxCell>
        <mxCell id="vFInMMs2sa7jWwvW7ep4-100" value="" style="endArrow=none;html=1;rounded=0;" parent="1" source="vFInMMs2sa7jWwvW7ep4-91" target="vFInMMs2sa7jWwvW7ep4-92" edge="1">
          <mxGeometry width="50" height="50" relative="1" as="geometry">
            <mxPoint x="1564" y="423" as="sourcePoint" />
            <mxPoint x="1556" y="368" as="targetPoint" />
          </mxGeometry>
        </mxCell>
        <mxCell id="vFInMMs2sa7jWwvW7ep4-101" value="" style="endArrow=none;html=1;rounded=0;" parent="1" source="vFInMMs2sa7jWwvW7ep4-35" target="vFInMMs2sa7jWwvW7ep4-92" edge="1">
          <mxGeometry width="50" height="50" relative="1" as="geometry">
            <mxPoint x="1574" y="433" as="sourcePoint" />
            <mxPoint x="1566" y="378" as="targetPoint" />
          </mxGeometry>
        </mxCell>
        <mxCell id="vFInMMs2sa7jWwvW7ep4-102" value="" style="endArrow=none;html=1;rounded=0;" parent="1" source="vFInMMs2sa7jWwvW7ep4-92" target="vFInMMs2sa7jWwvW7ep4-37" edge="1">
          <mxGeometry width="50" height="50" relative="1" as="geometry">
            <mxPoint x="1584" y="443" as="sourcePoint" />
            <mxPoint x="1576" y="388" as="targetPoint" />
          </mxGeometry>
        </mxCell>
        <mxCell id="vFInMMs2sa7jWwvW7ep4-103" value="" style="endArrow=none;html=1;rounded=0;strokeWidth=1;shape=link;" parent="1" source="vFInMMs2sa7jWwvW7ep4-92" target="vFInMMs2sa7jWwvW7ep4-42" edge="1">
          <mxGeometry width="50" height="50" relative="1" as="geometry">
            <mxPoint x="1400" y="460" as="sourcePoint" />
            <mxPoint x="1566" y="370" as="targetPoint" />
          </mxGeometry>
        </mxCell>
        <mxCell id="vFInMMs2sa7jWwvW7ep4-112" value="&lt;font style=&quot;font-size: 20px;&quot;&gt;&lt;b&gt;Base Site 2&lt;/b&gt;&lt;/font&gt;" style="text;html=1;align=center;verticalAlign=middle;resizable=0;points=[];autosize=1;strokeColor=none;fillColor=none;" parent="1" vertex="1">
          <mxGeometry x="1130" y="230" width="130" height="40" as="geometry" />
        </mxCell>
        <mxCell id="vFInMMs2sa7jWwvW7ep4-113" value="&lt;b&gt;IP: 10.20.0.0/24&lt;/b&gt;" style="text;html=1;align=center;verticalAlign=middle;resizable=0;points=[];autosize=1;strokeColor=default;fillColor=none;shadow=0;" parent="1" vertex="1">
          <mxGeometry x="1140" y="263.5" width="110" height="30" as="geometry" />
        </mxCell>
        <mxCell id="vFInMMs2sa7jWwvW7ep4-114" value="&lt;b style=&quot;&quot;&gt;&amp;nbsp; &amp;nbsp; &amp;nbsp; &amp;nbsp; &amp;nbsp; &amp;nbsp;VLAN: &lt;br&gt;123 - Users&lt;br&gt;268 - Servers&lt;br&gt;&lt;span style=&quot;&quot;&gt;&lt;span style=&quot;white-space: pre;&quot;&gt;709 - Admin&lt;br&gt;451 - Management&amp;nbsp;&amp;nbsp;&amp;nbsp;&amp;nbsp;&lt;/span&gt;&lt;/span&gt;&amp;nbsp; &amp;nbsp;&amp;nbsp;&lt;span style=&quot;&quot;&gt;&lt;span style=&quot;white-space: pre;&quot;&gt;&amp;nbsp;&amp;nbsp;&amp;nbsp;&amp;nbsp;&lt;/span&gt;&lt;/span&gt;&lt;/b&gt;" style="text;html=1;align=left;verticalAlign=middle;resizable=0;points=[];autosize=1;strokeColor=none;fillColor=none;" parent="1" vertex="1">
          <mxGeometry x="1450" y="510" width="170" height="90" as="geometry" />
        </mxCell>
        <mxCell id="vFInMMs2sa7jWwvW7ep4-116" value="" style="verticalLabelPosition=bottom;sketch=0;aspect=fixed;html=1;verticalAlign=top;strokeColor=none;align=center;outlineConnect=0;shape=mxgraph.citrix.dns_server;" parent="1" vertex="1">
          <mxGeometry x="1709.6599999999999" y="252.5" width="35.15" height="42.5" as="geometry" />
        </mxCell>
        <mxCell id="vFInMMs2sa7jWwvW7ep4-117" value="" style="verticalLabelPosition=bottom;sketch=0;aspect=fixed;html=1;verticalAlign=top;strokeColor=none;align=center;outlineConnect=0;shape=mxgraph.citrix.dns_server;" parent="1" vertex="1">
          <mxGeometry x="1770" y="253.5" width="35.15" height="42.5" as="geometry" />
        </mxCell>
        <mxCell id="vFInMMs2sa7jWwvW7ep4-118" value="" style="verticalLabelPosition=bottom;sketch=0;aspect=fixed;html=1;verticalAlign=top;strokeColor=none;align=center;outlineConnect=0;shape=mxgraph.citrix.dns_server;" parent="1" vertex="1">
          <mxGeometry x="1770" y="433.5" width="35.15" height="42.5" as="geometry" />
        </mxCell>
        <mxCell id="vFInMMs2sa7jWwvW7ep4-119" value="&lt;b style=&quot;&quot;&gt;&lt;font style=&quot;font-size: 7px;&quot;&gt;Tacacs Server #1&lt;/font&gt;&lt;/b&gt;" style="text;html=1;align=center;verticalAlign=middle;resizable=0;points=[];autosize=1;strokeColor=none;fillColor=none;" parent="1" vertex="1">
          <mxGeometry x="1744.8100000000002" y="289.5" width="80" height="30" as="geometry" />
        </mxCell>
        <mxCell id="vFInMMs2sa7jWwvW7ep4-120" value="&lt;b style=&quot;&quot;&gt;&lt;font style=&quot;font-size: 7px;&quot;&gt;Tacacs Server #2&lt;/font&gt;&lt;/b&gt;" style="text;html=1;align=center;verticalAlign=middle;resizable=0;points=[];autosize=1;strokeColor=none;fillColor=none;" parent="1" vertex="1">
          <mxGeometry x="1743.0000000000002" y="473" width="80" height="30" as="geometry" />
        </mxCell>
        <mxCell id="vFInMMs2sa7jWwvW7ep4-121" value="&lt;span style=&quot;font-size: 7px;&quot;&gt;&lt;b&gt;PRTG&lt;/b&gt;&lt;/span&gt;" style="text;html=1;align=center;verticalAlign=middle;resizable=0;points=[];autosize=1;strokeColor=none;fillColor=none;" parent="1" vertex="1">
          <mxGeometry x="1707.2300000000002" y="289.5" width="40" height="30" as="geometry" />
        </mxCell>
        <mxCell id="vFInMMs2sa7jWwvW7ep4-122" value="" style="shape=mxgraph.cisco.security.ios_firewall;html=1;pointerEvents=1;dashed=0;fillColor=#036897;strokeColor=#ffffff;strokeWidth=1;verticalLabelPosition=bottom;verticalAlign=top;align=center;outlineConnect=0;" parent="1" vertex="1">
          <mxGeometry x="980" y="820" width="24.24" height="40" as="geometry" />
        </mxCell>
        <mxCell id="vFInMMs2sa7jWwvW7ep4-123" value="" style="shape=mxgraph.cisco.security.ios_firewall;html=1;pointerEvents=1;dashed=0;fillColor=#036897;strokeColor=#ffffff;strokeWidth=1;verticalLabelPosition=bottom;verticalAlign=top;align=center;outlineConnect=0;" parent="1" vertex="1">
          <mxGeometry x="980" y="900" width="24.24" height="40" as="geometry" />
        </mxCell>
        <mxCell id="vFInMMs2sa7jWwvW7ep4-124" value="" style="shape=mxgraph.cisco.routers.router;html=1;pointerEvents=1;dashed=0;fillColor=#036897;strokeColor=#ffffff;strokeWidth=1;verticalLabelPosition=bottom;verticalAlign=top;align=center;outlineConnect=0;" parent="1" vertex="1">
          <mxGeometry x="900" y="828.5" width="33.85" height="23" as="geometry" />
        </mxCell>
        <mxCell id="vFInMMs2sa7jWwvW7ep4-125" value="" style="shape=mxgraph.cisco.routers.router;html=1;pointerEvents=1;dashed=0;fillColor=#036897;strokeColor=#ffffff;strokeWidth=1;verticalLabelPosition=bottom;verticalAlign=top;align=center;outlineConnect=0;" parent="1" vertex="1">
          <mxGeometry x="900" y="908.5" width="33.85" height="23" as="geometry" />
        </mxCell>
        <mxCell id="vFInMMs2sa7jWwvW7ep4-126" value="" style="shape=mxgraph.cisco.switches.layer_3_switch;html=1;pointerEvents=1;dashed=0;fillColor=#036897;strokeColor=#ffffff;strokeWidth=1;verticalLabelPosition=bottom;verticalAlign=top;align=center;outlineConnect=0;" parent="1" vertex="1">
          <mxGeometry x="830" y="825" width="30" height="30" as="geometry" />
        </mxCell>
        <mxCell id="vFInMMs2sa7jWwvW7ep4-127" value="" style="shape=mxgraph.cisco.switches.layer_3_switch;html=1;pointerEvents=1;dashed=0;fillColor=#036897;strokeColor=#ffffff;strokeWidth=1;verticalLabelPosition=bottom;verticalAlign=top;align=center;outlineConnect=0;" parent="1" vertex="1">
          <mxGeometry x="830" y="905" width="30" height="30" as="geometry" />
        </mxCell>
        <mxCell id="vFInMMs2sa7jWwvW7ep4-133" value="" style="shape=mxgraph.cisco.switches.layer_2_remote_switch;html=1;pointerEvents=1;dashed=0;fillColor=#036897;strokeColor=#ffffff;strokeWidth=1;verticalLabelPosition=bottom;verticalAlign=top;align=center;outlineConnect=0;" parent="1" vertex="1">
          <mxGeometry x="657.4" y="716" width="40.4" height="20" as="geometry" />
        </mxCell>
        <mxCell id="vFInMMs2sa7jWwvW7ep4-136" value="" style="shape=mxgraph.cisco.switches.layer_3_switch;html=1;pointerEvents=1;dashed=0;fillColor=#036897;strokeColor=#ffffff;strokeWidth=1;verticalLabelPosition=bottom;verticalAlign=top;align=center;outlineConnect=0;" parent="1" vertex="1">
          <mxGeometry x="750.4" y="910" width="30" height="30" as="geometry" />
        </mxCell>
        <mxCell id="vFInMMs2sa7jWwvW7ep4-137" value="" style="shape=mxgraph.cisco.switches.layer_3_switch;html=1;pointerEvents=1;dashed=0;fillColor=#036897;strokeColor=#ffffff;strokeWidth=1;verticalLabelPosition=bottom;verticalAlign=top;align=center;outlineConnect=0;" parent="1" vertex="1">
          <mxGeometry x="750.4" y="978.5" width="30" height="30" as="geometry" />
        </mxCell>
        <mxCell id="vFInMMs2sa7jWwvW7ep4-138" value="" style="shape=mxgraph.cisco.switches.layer_2_remote_switch;html=1;pointerEvents=1;dashed=0;fillColor=#036897;strokeColor=#ffffff;strokeWidth=1;verticalLabelPosition=bottom;verticalAlign=top;align=center;outlineConnect=0;" parent="1" vertex="1">
          <mxGeometry x="657.4" y="915" width="40.4" height="20" as="geometry" />
        </mxCell>
        <mxCell id="vFInMMs2sa7jWwvW7ep4-139" value="" style="shape=mxgraph.cisco.switches.layer_2_remote_switch;html=1;pointerEvents=1;dashed=0;fillColor=#036897;strokeColor=#ffffff;strokeWidth=1;verticalLabelPosition=bottom;verticalAlign=top;align=center;outlineConnect=0;" parent="1" vertex="1">
          <mxGeometry x="657.4" y="979" width="40.4" height="20" as="geometry" />
        </mxCell>
        <mxCell id="vFInMMs2sa7jWwvW7ep4-140" value="" style="shape=mxgraph.cisco.switches.layer_2_remote_switch;html=1;pointerEvents=1;dashed=0;fillColor=#036897;strokeColor=#ffffff;strokeWidth=1;verticalLabelPosition=bottom;verticalAlign=top;align=center;outlineConnect=0;" parent="1" vertex="1">
          <mxGeometry x="657.4" y="1041" width="40.4" height="20" as="geometry" />
        </mxCell>
        <mxCell id="vFInMMs2sa7jWwvW7ep4-141" value="" style="shape=mxgraph.cisco.switches.layer_3_switch;html=1;pointerEvents=1;dashed=0;fillColor=#036897;strokeColor=#ffffff;strokeWidth=1;verticalLabelPosition=bottom;verticalAlign=top;align=center;outlineConnect=0;" parent="1" vertex="1">
          <mxGeometry x="750.4" y="771.5" width="30" height="30" as="geometry" />
        </mxCell>
        <mxCell id="vFInMMs2sa7jWwvW7ep4-142" value="" style="shape=mxgraph.cisco.switches.layer_3_switch;html=1;pointerEvents=1;dashed=0;fillColor=#036897;strokeColor=#ffffff;strokeWidth=1;verticalLabelPosition=bottom;verticalAlign=top;align=center;outlineConnect=0;" parent="1" vertex="1">
          <mxGeometry x="750.4" y="841.5" width="30" height="30" as="geometry" />
        </mxCell>
        <mxCell id="vFInMMs2sa7jWwvW7ep4-144" value="" style="shape=mxgraph.cisco.computers_and_peripherals.pc;html=1;pointerEvents=1;dashed=0;fillColor=#036897;strokeColor=#ffffff;strokeWidth=1;verticalLabelPosition=bottom;verticalAlign=top;align=center;outlineConnect=0;" parent="1" vertex="1">
          <mxGeometry x="596.9999999999999" y="910" width="33.43" height="30" as="geometry" />
        </mxCell>
        <mxCell id="vFInMMs2sa7jWwvW7ep4-145" value="" style="shape=mxgraph.cisco.computers_and_peripherals.pc;html=1;pointerEvents=1;dashed=0;fillColor=#036897;strokeColor=#ffffff;strokeWidth=1;verticalLabelPosition=bottom;verticalAlign=top;align=center;outlineConnect=0;" parent="1" vertex="1">
          <mxGeometry x="546.9999999999999" y="910" width="33.43" height="30" as="geometry" />
        </mxCell>
        <mxCell id="vFInMMs2sa7jWwvW7ep4-146" value="" style="shape=mxgraph.cisco.computers_and_peripherals.pc;html=1;pointerEvents=1;dashed=0;fillColor=#036897;strokeColor=#ffffff;strokeWidth=1;verticalLabelPosition=bottom;verticalAlign=top;align=center;outlineConnect=0;" parent="1" vertex="1">
          <mxGeometry x="496.9999999999999" y="910" width="33.43" height="30" as="geometry" />
        </mxCell>
        <mxCell id="vFInMMs2sa7jWwvW7ep4-147" value="" style="shape=mxgraph.cisco.computers_and_peripherals.pc;html=1;pointerEvents=1;dashed=0;fillColor=#036897;strokeColor=#ffffff;strokeWidth=1;verticalLabelPosition=bottom;verticalAlign=top;align=center;outlineConnect=0;" parent="1" vertex="1">
          <mxGeometry x="446.9999999999999" y="910" width="33.43" height="30" as="geometry" />
        </mxCell>
        <mxCell id="vFInMMs2sa7jWwvW7ep4-148" value="" style="shape=mxgraph.cisco.computers_and_peripherals.pc;html=1;pointerEvents=1;dashed=0;fillColor=#036897;strokeColor=#ffffff;strokeWidth=1;verticalLabelPosition=bottom;verticalAlign=top;align=center;outlineConnect=0;" parent="1" vertex="1">
          <mxGeometry x="396.9999999999999" y="910" width="33.43" height="30" as="geometry" />
        </mxCell>
        <mxCell id="vFInMMs2sa7jWwvW7ep4-149" value="" style="shape=mxgraph.cisco.computers_and_peripherals.pc;html=1;pointerEvents=1;dashed=0;fillColor=#036897;strokeColor=#ffffff;strokeWidth=1;verticalLabelPosition=bottom;verticalAlign=top;align=center;outlineConnect=0;" parent="1" vertex="1">
          <mxGeometry x="596.9999999999999" y="974" width="33.43" height="30" as="geometry" />
        </mxCell>
        <mxCell id="vFInMMs2sa7jWwvW7ep4-150" value="" style="shape=mxgraph.cisco.computers_and_peripherals.pc;html=1;pointerEvents=1;dashed=0;fillColor=#036897;strokeColor=#ffffff;strokeWidth=1;verticalLabelPosition=bottom;verticalAlign=top;align=center;outlineConnect=0;" parent="1" vertex="1">
          <mxGeometry x="546.9999999999999" y="974" width="33.43" height="30" as="geometry" />
        </mxCell>
        <mxCell id="vFInMMs2sa7jWwvW7ep4-151" value="" style="shape=mxgraph.cisco.computers_and_peripherals.pc;html=1;pointerEvents=1;dashed=0;fillColor=#036897;strokeColor=#ffffff;strokeWidth=1;verticalLabelPosition=bottom;verticalAlign=top;align=center;outlineConnect=0;" parent="1" vertex="1">
          <mxGeometry x="496.9999999999999" y="974" width="33.43" height="30" as="geometry" />
        </mxCell>
        <mxCell id="vFInMMs2sa7jWwvW7ep4-152" value="" style="shape=mxgraph.cisco.computers_and_peripherals.pc;html=1;pointerEvents=1;dashed=0;fillColor=#036897;strokeColor=#ffffff;strokeWidth=1;verticalLabelPosition=bottom;verticalAlign=top;align=center;outlineConnect=0;" parent="1" vertex="1">
          <mxGeometry x="446.9999999999999" y="974" width="33.43" height="30" as="geometry" />
        </mxCell>
        <mxCell id="vFInMMs2sa7jWwvW7ep4-153" value="" style="shape=mxgraph.cisco.computers_and_peripherals.pc;html=1;pointerEvents=1;dashed=0;fillColor=#036897;strokeColor=#ffffff;strokeWidth=1;verticalLabelPosition=bottom;verticalAlign=top;align=center;outlineConnect=0;" parent="1" vertex="1">
          <mxGeometry x="396.9999999999999" y="974" width="33.43" height="30" as="geometry" />
        </mxCell>
        <mxCell id="vFInMMs2sa7jWwvW7ep4-154" value="" style="shape=mxgraph.cisco.computers_and_peripherals.pc;html=1;pointerEvents=1;dashed=0;fillColor=#036897;strokeColor=#ffffff;strokeWidth=1;verticalLabelPosition=bottom;verticalAlign=top;align=center;outlineConnect=0;" parent="1" vertex="1">
          <mxGeometry x="596.9999999999999" y="1036" width="33.43" height="30" as="geometry" />
        </mxCell>
        <mxCell id="vFInMMs2sa7jWwvW7ep4-155" value="" style="shape=mxgraph.cisco.computers_and_peripherals.pc;html=1;pointerEvents=1;dashed=0;fillColor=#036897;strokeColor=#ffffff;strokeWidth=1;verticalLabelPosition=bottom;verticalAlign=top;align=center;outlineConnect=0;" parent="1" vertex="1">
          <mxGeometry x="546.9999999999999" y="1036" width="33.43" height="30" as="geometry" />
        </mxCell>
        <mxCell id="vFInMMs2sa7jWwvW7ep4-156" value="" style="shape=mxgraph.cisco.computers_and_peripherals.pc;html=1;pointerEvents=1;dashed=0;fillColor=#036897;strokeColor=#ffffff;strokeWidth=1;verticalLabelPosition=bottom;verticalAlign=top;align=center;outlineConnect=0;" parent="1" vertex="1">
          <mxGeometry x="496.9999999999999" y="1036" width="33.43" height="30" as="geometry" />
        </mxCell>
        <mxCell id="vFInMMs2sa7jWwvW7ep4-157" value="" style="shape=mxgraph.cisco.computers_and_peripherals.pc;html=1;pointerEvents=1;dashed=0;fillColor=#036897;strokeColor=#ffffff;strokeWidth=1;verticalLabelPosition=bottom;verticalAlign=top;align=center;outlineConnect=0;" parent="1" vertex="1">
          <mxGeometry x="446.9999999999999" y="1036" width="33.43" height="30" as="geometry" />
        </mxCell>
        <mxCell id="vFInMMs2sa7jWwvW7ep4-158" value="" style="shape=mxgraph.cisco.computers_and_peripherals.pc;html=1;pointerEvents=1;dashed=0;fillColor=#036897;strokeColor=#ffffff;strokeWidth=1;verticalLabelPosition=bottom;verticalAlign=top;align=center;outlineConnect=0;" parent="1" vertex="1">
          <mxGeometry x="396.9999999999999" y="1036" width="33.43" height="30" as="geometry" />
        </mxCell>
        <mxCell id="vFInMMs2sa7jWwvW7ep4-159" value="" style="verticalLabelPosition=bottom;sketch=0;aspect=fixed;html=1;verticalAlign=top;strokeColor=none;align=center;outlineConnect=0;shape=mxgraph.citrix.dns_server;" parent="1" vertex="1">
          <mxGeometry x="597.2800000000001" y="704.75" width="36.15" height="42.5" as="geometry" />
        </mxCell>
        <mxCell id="vFInMMs2sa7jWwvW7ep4-160" value="" style="verticalLabelPosition=bottom;sketch=0;aspect=fixed;html=1;verticalAlign=top;strokeColor=none;align=center;outlineConnect=0;shape=mxgraph.citrix.dns_server;" parent="1" vertex="1">
          <mxGeometry x="540.0000000000001" y="704.75" width="36.15" height="42.5" as="geometry" />
        </mxCell>
        <mxCell id="vFInMMs2sa7jWwvW7ep4-161" value="" style="verticalLabelPosition=bottom;sketch=0;aspect=fixed;html=1;verticalAlign=top;strokeColor=none;align=center;outlineConnect=0;shape=mxgraph.citrix.dns_server;" parent="1" vertex="1">
          <mxGeometry x="483.43000000000006" y="704.75" width="36.15" height="42.5" as="geometry" />
        </mxCell>
        <mxCell id="vFInMMs2sa7jWwvW7ep4-162" value="" style="verticalLabelPosition=bottom;sketch=0;aspect=fixed;html=1;verticalAlign=top;strokeColor=none;align=center;outlineConnect=0;shape=mxgraph.citrix.dns_server;" parent="1" vertex="1">
          <mxGeometry x="430.0000000000001" y="704.75" width="36.15" height="42.5" as="geometry" />
        </mxCell>
        <mxCell id="vFInMMs2sa7jWwvW7ep4-163" value="" style="verticalLabelPosition=bottom;sketch=0;aspect=fixed;html=1;verticalAlign=top;strokeColor=none;align=center;outlineConnect=0;shape=mxgraph.citrix.dns_server;" parent="1" vertex="1">
          <mxGeometry x="380.0000000000001" y="705" width="36.15" height="42.5" as="geometry" />
        </mxCell>
        <mxCell id="vFInMMs2sa7jWwvW7ep4-164" value="" style="shape=mxgraph.cisco.switches.layer_2_remote_switch;html=1;pointerEvents=1;dashed=0;fillColor=#036897;strokeColor=#ffffff;strokeWidth=1;verticalLabelPosition=bottom;verticalAlign=top;align=center;outlineConnect=0;" parent="1" vertex="1">
          <mxGeometry x="657.4" y="787" width="40.4" height="20" as="geometry" />
        </mxCell>
        <mxCell id="vFInMMs2sa7jWwvW7ep4-165" value="" style="verticalLabelPosition=bottom;sketch=0;aspect=fixed;html=1;verticalAlign=top;strokeColor=none;align=center;outlineConnect=0;shape=mxgraph.citrix.dns_server;" parent="1" vertex="1">
          <mxGeometry x="597.2800000000001" y="775.75" width="36.15" height="42.5" as="geometry" />
        </mxCell>
        <mxCell id="vFInMMs2sa7jWwvW7ep4-166" value="" style="verticalLabelPosition=bottom;sketch=0;aspect=fixed;html=1;verticalAlign=top;strokeColor=none;align=center;outlineConnect=0;shape=mxgraph.citrix.dns_server;" parent="1" vertex="1">
          <mxGeometry x="540.0000000000001" y="775.75" width="36.15" height="42.5" as="geometry" />
        </mxCell>
        <mxCell id="vFInMMs2sa7jWwvW7ep4-167" value="" style="verticalLabelPosition=bottom;sketch=0;aspect=fixed;html=1;verticalAlign=top;strokeColor=none;align=center;outlineConnect=0;shape=mxgraph.citrix.dns_server;" parent="1" vertex="1">
          <mxGeometry x="483.43000000000006" y="775.75" width="36.15" height="42.5" as="geometry" />
        </mxCell>
        <mxCell id="vFInMMs2sa7jWwvW7ep4-168" value="" style="verticalLabelPosition=bottom;sketch=0;aspect=fixed;html=1;verticalAlign=top;strokeColor=none;align=center;outlineConnect=0;shape=mxgraph.citrix.dns_server;" parent="1" vertex="1">
          <mxGeometry x="430.0000000000001" y="775.75" width="36.15" height="42.5" as="geometry" />
        </mxCell>
        <mxCell id="vFInMMs2sa7jWwvW7ep4-169" value="" style="verticalLabelPosition=bottom;sketch=0;aspect=fixed;html=1;verticalAlign=top;strokeColor=none;align=center;outlineConnect=0;shape=mxgraph.citrix.dns_server;" parent="1" vertex="1">
          <mxGeometry x="380.0000000000001" y="776" width="36.15" height="42.5" as="geometry" />
        </mxCell>
        <mxCell id="vFInMMs2sa7jWwvW7ep4-170" value="" style="shape=mxgraph.cisco.switches.layer_2_remote_switch;html=1;pointerEvents=1;dashed=0;fillColor=#036897;strokeColor=#ffffff;strokeWidth=1;verticalLabelPosition=bottom;verticalAlign=top;align=center;outlineConnect=0;" parent="1" vertex="1">
          <mxGeometry x="657.4" y="852.25" width="40.4" height="20" as="geometry" />
        </mxCell>
        <mxCell id="vFInMMs2sa7jWwvW7ep4-171" value="" style="verticalLabelPosition=bottom;sketch=0;aspect=fixed;html=1;verticalAlign=top;strokeColor=none;align=center;outlineConnect=0;shape=mxgraph.citrix.dns_server;" parent="1" vertex="1">
          <mxGeometry x="597.2800000000001" y="841" width="36.15" height="42.5" as="geometry" />
        </mxCell>
        <mxCell id="vFInMMs2sa7jWwvW7ep4-172" value="" style="verticalLabelPosition=bottom;sketch=0;aspect=fixed;html=1;verticalAlign=top;strokeColor=none;align=center;outlineConnect=0;shape=mxgraph.citrix.dns_server;" parent="1" vertex="1">
          <mxGeometry x="540.0000000000001" y="841" width="36.15" height="42.5" as="geometry" />
        </mxCell>
        <mxCell id="vFInMMs2sa7jWwvW7ep4-173" value="" style="verticalLabelPosition=bottom;sketch=0;aspect=fixed;html=1;verticalAlign=top;strokeColor=none;align=center;outlineConnect=0;shape=mxgraph.citrix.dns_server;" parent="1" vertex="1">
          <mxGeometry x="483.43000000000006" y="841" width="36.15" height="42.5" as="geometry" />
        </mxCell>
        <mxCell id="vFInMMs2sa7jWwvW7ep4-174" value="" style="verticalLabelPosition=bottom;sketch=0;aspect=fixed;html=1;verticalAlign=top;strokeColor=none;align=center;outlineConnect=0;shape=mxgraph.citrix.dns_server;" parent="1" vertex="1">
          <mxGeometry x="430.0000000000001" y="841" width="36.15" height="42.5" as="geometry" />
        </mxCell>
        <mxCell id="vFInMMs2sa7jWwvW7ep4-175" value="" style="verticalLabelPosition=bottom;sketch=0;aspect=fixed;html=1;verticalAlign=top;strokeColor=none;align=center;outlineConnect=0;shape=mxgraph.citrix.dns_server;" parent="1" vertex="1">
          <mxGeometry x="380.0000000000001" y="841.25" width="36.15" height="42.5" as="geometry" />
        </mxCell>
        <mxCell id="vFInMMs2sa7jWwvW7ep4-176" value="&lt;p style=&quot;line-height: 60%;&quot;&gt;&lt;b style=&quot;font-size: 7px;&quot;&gt;DNS + DC&lt;br&gt;Server #1&lt;/b&gt;&lt;/p&gt;" style="text;html=1;align=center;verticalAlign=middle;resizable=0;points=[];autosize=1;strokeColor=none;fillColor=none;" parent="1" vertex="1">
          <mxGeometry x="368.08" y="732" width="60" height="50" as="geometry" />
        </mxCell>
        <mxCell id="vFInMMs2sa7jWwvW7ep4-177" value="&lt;p style=&quot;line-height: 60%;&quot;&gt;&lt;b style=&quot;font-size: 7px;&quot;&gt;DNS + DC&lt;br&gt;Server #2&lt;/b&gt;&lt;/p&gt;" style="text;html=1;align=center;verticalAlign=middle;resizable=0;points=[];autosize=1;strokeColor=none;fillColor=none;" parent="1" vertex="1">
          <mxGeometry x="368.08" y="801.5" width="60" height="50" as="geometry" />
        </mxCell>
        <mxCell id="vFInMMs2sa7jWwvW7ep4-178" value="&lt;p style=&quot;line-height: 60%;&quot;&gt;&lt;b style=&quot;font-size: 7px;&quot;&gt;DHCP&lt;br&gt;Server #1&lt;/b&gt;&lt;/p&gt;" style="text;html=1;align=center;verticalAlign=middle;resizable=0;points=[];autosize=1;strokeColor=none;fillColor=none;" parent="1" vertex="1">
          <mxGeometry x="416.15" y="732" width="60" height="50" as="geometry" />
        </mxCell>
        <mxCell id="vFInMMs2sa7jWwvW7ep4-179" value="&lt;p style=&quot;line-height: 60%;&quot;&gt;&lt;b style=&quot;font-size: 7px;&quot;&gt;DHCP&lt;br&gt;Server #2&lt;/b&gt;&lt;/p&gt;" style="text;html=1;align=center;verticalAlign=middle;resizable=0;points=[];autosize=1;strokeColor=none;fillColor=none;" parent="1" vertex="1">
          <mxGeometry x="413.08" y="801" width="60" height="50" as="geometry" />
        </mxCell>
        <mxCell id="vFInMMs2sa7jWwvW7ep4-180" value="&lt;p style=&quot;line-height: 60%;&quot;&gt;&lt;b style=&quot;font-size: 7px;&quot;&gt;File&lt;br&gt;Server #1&lt;/b&gt;&lt;/p&gt;" style="text;html=1;align=center;verticalAlign=middle;resizable=0;points=[];autosize=1;strokeColor=none;fillColor=none;" parent="1" vertex="1">
          <mxGeometry x="474.15" y="731.75" width="60" height="50" as="geometry" />
        </mxCell>
        <mxCell id="vFInMMs2sa7jWwvW7ep4-181" value="&lt;p style=&quot;line-height: 60%;&quot;&gt;&lt;b style=&quot;font-size: 7px;&quot;&gt;File&lt;br&gt;Server #2&lt;/b&gt;&lt;/p&gt;" style="text;html=1;align=center;verticalAlign=middle;resizable=0;points=[];autosize=1;strokeColor=none;fillColor=none;" parent="1" vertex="1">
          <mxGeometry x="474.15" y="801.25" width="60" height="50" as="geometry" />
        </mxCell>
        <mxCell id="vFInMMs2sa7jWwvW7ep4-182" value="&lt;p style=&quot;line-height: 60%;&quot;&gt;&lt;b style=&quot;font-size: 7px;&quot;&gt;Mail (Linux)&lt;br&gt;Server #1&lt;/b&gt;&lt;/p&gt;" style="text;html=1;align=center;verticalAlign=middle;resizable=0;points=[];autosize=1;strokeColor=none;fillColor=none;" parent="1" vertex="1">
          <mxGeometry x="522.22" y="731.75" width="60" height="50" as="geometry" />
        </mxCell>
        <mxCell id="vFInMMs2sa7jWwvW7ep4-183" value="&lt;p style=&quot;line-height: 60%;&quot;&gt;&lt;b style=&quot;font-size: 7px;&quot;&gt;Mail (Linux)&lt;br&gt;Server #2&lt;/b&gt;&lt;/p&gt;" style="text;html=1;align=center;verticalAlign=middle;resizable=0;points=[];autosize=1;strokeColor=none;fillColor=none;" parent="1" vertex="1">
          <mxGeometry x="522.5" y="801" width="60" height="50" as="geometry" />
        </mxCell>
        <mxCell id="vFInMMs2sa7jWwvW7ep4-184" value="&lt;p style=&quot;line-height: 60%;&quot;&gt;&lt;b style=&quot;font-size: 7px;&quot;&gt;Web (Linux)&lt;br&gt;Server #1&lt;/b&gt;&lt;/p&gt;" style="text;html=1;align=center;verticalAlign=middle;resizable=0;points=[];autosize=1;strokeColor=none;fillColor=none;" parent="1" vertex="1">
          <mxGeometry x="582.5" y="732" width="60" height="50" as="geometry" />
        </mxCell>
        <mxCell id="vFInMMs2sa7jWwvW7ep4-185" value="&lt;p style=&quot;line-height: 60%;&quot;&gt;&lt;b style=&quot;font-size: 7px;&quot;&gt;Web (Linux)&lt;br&gt;Server #2&lt;/b&gt;&lt;/p&gt;" style="text;html=1;align=center;verticalAlign=middle;resizable=0;points=[];autosize=1;strokeColor=none;fillColor=none;" parent="1" vertex="1">
          <mxGeometry x="580.43" y="801" width="60" height="50" as="geometry" />
        </mxCell>
        <mxCell id="vFInMMs2sa7jWwvW7ep4-186" value="&lt;p style=&quot;line-height: 60%;&quot;&gt;&lt;span style=&quot;font-size: 7px;&quot;&gt;&lt;b&gt;WSUS&lt;/b&gt;&lt;/span&gt;&lt;/p&gt;" style="text;html=1;align=center;verticalAlign=middle;resizable=0;points=[];autosize=1;strokeColor=none;fillColor=none;" parent="1" vertex="1">
          <mxGeometry x="380.15" y="869" width="40" height="50" as="geometry" />
        </mxCell>
        <mxCell id="vFInMMs2sa7jWwvW7ep4-187" value="&lt;p style=&quot;line-height: 60%;&quot;&gt;&lt;span style=&quot;font-size: 7px;&quot;&gt;&lt;b&gt;WDS&lt;/b&gt;&lt;/span&gt;&lt;/p&gt;" style="text;html=1;align=center;verticalAlign=middle;resizable=0;points=[];autosize=1;strokeColor=none;fillColor=none;" parent="1" vertex="1">
          <mxGeometry x="425.15" y="868.5" width="40" height="50" as="geometry" />
        </mxCell>
        <mxCell id="vFInMMs2sa7jWwvW7ep4-188" value="&lt;p style=&quot;line-height: 60%;&quot;&gt;&lt;span style=&quot;font-size: 7px;&quot;&gt;&lt;b&gt;DFS&lt;/b&gt;&lt;/span&gt;&lt;/p&gt;" style="text;html=1;align=center;verticalAlign=middle;resizable=0;points=[];autosize=1;strokeColor=none;fillColor=none;" parent="1" vertex="1">
          <mxGeometry x="481.21999999999997" y="867.75" width="40" height="50" as="geometry" />
        </mxCell>
        <mxCell id="vFInMMs2sa7jWwvW7ep4-189" value="&lt;p style=&quot;line-height: 60%;&quot;&gt;&lt;span style=&quot;font-size: 7px;&quot;&gt;&lt;b&gt;PRTG&lt;/b&gt;&lt;/span&gt;&lt;/p&gt;" style="text;html=1;align=center;verticalAlign=middle;resizable=0;points=[];autosize=1;strokeColor=none;fillColor=none;" parent="1" vertex="1">
          <mxGeometry x="531.22" y="868.25" width="40" height="50" as="geometry" />
        </mxCell>
        <mxCell id="vFInMMs2sa7jWwvW7ep4-192" value="&lt;p style=&quot;line-height: 60%;&quot;&gt;&lt;span style=&quot;font-size: 7px;&quot;&gt;&lt;b&gt;IPAM&lt;/b&gt;&lt;/span&gt;&lt;/p&gt;" style="text;html=1;align=center;verticalAlign=middle;resizable=0;points=[];autosize=1;strokeColor=none;fillColor=none;" parent="1" vertex="1">
          <mxGeometry x="592.5" y="868" width="40" height="50" as="geometry" />
        </mxCell>
        <mxCell id="vFInMMs2sa7jWwvW7ep4-193" value="" style="verticalLabelPosition=bottom;sketch=0;aspect=fixed;html=1;verticalAlign=top;strokeColor=none;align=center;outlineConnect=0;shape=mxgraph.citrix.dns_server;" parent="1" vertex="1">
          <mxGeometry x="320.0000000000001" y="705" width="36.15" height="42.5" as="geometry" />
        </mxCell>
        <mxCell id="vFInMMs2sa7jWwvW7ep4-194" value="" style="verticalLabelPosition=bottom;sketch=0;aspect=fixed;html=1;verticalAlign=top;strokeColor=none;align=center;outlineConnect=0;shape=mxgraph.citrix.dns_server;" parent="1" vertex="1">
          <mxGeometry x="320.0000000000001" y="776" width="36.15" height="42.5" as="geometry" />
        </mxCell>
        <mxCell id="vFInMMs2sa7jWwvW7ep4-195" value="&lt;p style=&quot;line-height: 60%;&quot;&gt;&lt;b style=&quot;font-size: 7px;&quot;&gt;Tacacs+&lt;br&gt;Server #1&lt;/b&gt;&lt;/p&gt;" style="text;html=1;align=center;verticalAlign=middle;resizable=0;points=[];autosize=1;strokeColor=none;fillColor=none;" parent="1" vertex="1">
          <mxGeometry x="308.08" y="732" width="60" height="50" as="geometry" />
        </mxCell>
        <mxCell id="vFInMMs2sa7jWwvW7ep4-196" value="&lt;p style=&quot;line-height: 60%;&quot;&gt;&lt;b style=&quot;font-size: 7px;&quot;&gt;Tacacs+&lt;br&gt;Server #2&lt;/b&gt;&lt;/p&gt;" style="text;html=1;align=center;verticalAlign=middle;resizable=0;points=[];autosize=1;strokeColor=none;fillColor=none;" parent="1" vertex="1">
          <mxGeometry x="308.08" y="801.5" width="60" height="50" as="geometry" />
        </mxCell>
        <mxCell id="vFInMMs2sa7jWwvW7ep4-198" value="" style="endArrow=none;html=1;rounded=0;strokeWidth=1;shape=link;" parent="1" source="vFInMMs2sa7jWwvW7ep4-141" target="vFInMMs2sa7jWwvW7ep4-133" edge="1">
          <mxGeometry width="50" height="50" relative="1" as="geometry">
            <mxPoint x="830" y="650" as="sourcePoint" />
            <mxPoint x="890" y="590" as="targetPoint" />
          </mxGeometry>
        </mxCell>
        <mxCell id="vFInMMs2sa7jWwvW7ep4-211" value="" style="endArrow=none;html=1;rounded=0;strokeWidth=1;shape=link;" parent="1" source="vFInMMs2sa7jWwvW7ep4-141" target="vFInMMs2sa7jWwvW7ep4-164" edge="1">
          <mxGeometry width="50" height="50" relative="1" as="geometry">
            <mxPoint x="760" y="786" as="sourcePoint" />
            <mxPoint x="702" y="746" as="targetPoint" />
          </mxGeometry>
        </mxCell>
        <mxCell id="vFInMMs2sa7jWwvW7ep4-212" value="" style="endArrow=none;html=1;rounded=0;strokeWidth=1;shape=link;" parent="1" source="vFInMMs2sa7jWwvW7ep4-142" target="vFInMMs2sa7jWwvW7ep4-170" edge="1">
          <mxGeometry width="50" height="50" relative="1" as="geometry">
            <mxPoint x="760" y="798" as="sourcePoint" />
            <mxPoint x="708" y="805" as="targetPoint" />
          </mxGeometry>
        </mxCell>
        <mxCell id="vFInMMs2sa7jWwvW7ep4-213" value="" style="endArrow=none;html=1;rounded=0;strokeWidth=1;shape=link;" parent="1" source="vFInMMs2sa7jWwvW7ep4-142" target="vFInMMs2sa7jWwvW7ep4-164" edge="1">
          <mxGeometry width="50" height="50" relative="1" as="geometry">
            <mxPoint x="760" y="867" as="sourcePoint" />
            <mxPoint x="708" y="871" as="targetPoint" />
          </mxGeometry>
        </mxCell>
        <mxCell id="vFInMMs2sa7jWwvW7ep4-214" value="" style="endArrow=none;html=1;rounded=0;strokeWidth=1;shape=link;" parent="1" source="vFInMMs2sa7jWwvW7ep4-142" target="vFInMMs2sa7jWwvW7ep4-133" edge="1">
          <mxGeometry width="50" height="50" relative="1" as="geometry">
            <mxPoint x="760" y="856" as="sourcePoint" />
            <mxPoint x="702" y="817" as="targetPoint" />
          </mxGeometry>
        </mxCell>
        <mxCell id="vFInMMs2sa7jWwvW7ep4-215" value="" style="endArrow=none;html=1;rounded=0;strokeWidth=1;shape=link;" parent="1" source="vFInMMs2sa7jWwvW7ep4-141" target="vFInMMs2sa7jWwvW7ep4-170" edge="1">
          <mxGeometry width="50" height="50" relative="1" as="geometry">
            <mxPoint x="765" y="852" as="sourcePoint" />
            <mxPoint x="694" y="746" as="targetPoint" />
          </mxGeometry>
        </mxCell>
        <mxCell id="vFInMMs2sa7jWwvW7ep4-216" value="" style="endArrow=none;html=1;rounded=0;strokeWidth=1;shape=link;" parent="1" source="vFInMMs2sa7jWwvW7ep4-126" target="vFInMMs2sa7jWwvW7ep4-142" edge="1">
          <mxGeometry width="50" height="50" relative="1" as="geometry">
            <mxPoint x="760" y="809" as="sourcePoint" />
            <mxPoint x="699" y="862" as="targetPoint" />
          </mxGeometry>
        </mxCell>
        <mxCell id="vFInMMs2sa7jWwvW7ep4-217" value="" style="endArrow=none;html=1;rounded=0;strokeWidth=1;shape=link;" parent="1" source="vFInMMs2sa7jWwvW7ep4-126" target="vFInMMs2sa7jWwvW7ep4-141" edge="1">
          <mxGeometry width="50" height="50" relative="1" as="geometry">
            <mxPoint x="840" y="853" as="sourcePoint" />
            <mxPoint x="790" y="863" as="targetPoint" />
          </mxGeometry>
        </mxCell>
        <mxCell id="vFInMMs2sa7jWwvW7ep4-218" value="" style="endArrow=none;html=1;rounded=0;strokeWidth=1;shape=link;" parent="1" source="vFInMMs2sa7jWwvW7ep4-142" target="vFInMMs2sa7jWwvW7ep4-141" edge="1">
          <mxGeometry width="50" height="50" relative="1" as="geometry">
            <mxPoint x="840" y="840" as="sourcePoint" />
            <mxPoint x="790" y="807" as="targetPoint" />
          </mxGeometry>
        </mxCell>
        <mxCell id="vFInMMs2sa7jWwvW7ep4-219" value="" style="endArrow=none;html=1;rounded=0;strokeWidth=1;shape=link;" parent="1" source="vFInMMs2sa7jWwvW7ep4-127" target="vFInMMs2sa7jWwvW7ep4-126" edge="1">
          <mxGeometry width="50" height="50" relative="1" as="geometry">
            <mxPoint x="775" y="852" as="sourcePoint" />
            <mxPoint x="775" y="812" as="targetPoint" />
          </mxGeometry>
        </mxCell>
        <mxCell id="vFInMMs2sa7jWwvW7ep4-220" value="" style="endArrow=none;html=1;rounded=0;strokeWidth=1;shape=link;" parent="1" source="vFInMMs2sa7jWwvW7ep4-127" target="vFInMMs2sa7jWwvW7ep4-142" edge="1">
          <mxGeometry width="50" height="50" relative="1" as="geometry">
            <mxPoint x="855" y="915" as="sourcePoint" />
            <mxPoint x="855" y="865" as="targetPoint" />
          </mxGeometry>
        </mxCell>
        <mxCell id="vFInMMs2sa7jWwvW7ep4-221" value="" style="endArrow=none;html=1;rounded=0;strokeWidth=1;shape=link;" parent="1" source="vFInMMs2sa7jWwvW7ep4-127" target="vFInMMs2sa7jWwvW7ep4-136" edge="1">
          <mxGeometry width="50" height="50" relative="1" as="geometry">
            <mxPoint x="840" y="918" as="sourcePoint" />
            <mxPoint x="790" y="878" as="targetPoint" />
          </mxGeometry>
        </mxCell>
        <mxCell id="vFInMMs2sa7jWwvW7ep4-222" value="" style="endArrow=none;html=1;rounded=0;strokeWidth=1;shape=link;" parent="1" source="vFInMMs2sa7jWwvW7ep4-127" target="vFInMMs2sa7jWwvW7ep4-137" edge="1">
          <mxGeometry width="50" height="50" relative="1" as="geometry">
            <mxPoint x="840" y="931" as="sourcePoint" />
            <mxPoint x="790" y="934" as="targetPoint" />
          </mxGeometry>
        </mxCell>
        <mxCell id="vFInMMs2sa7jWwvW7ep4-223" value="" style="endArrow=none;html=1;rounded=0;strokeWidth=1;shape=link;" parent="1" source="vFInMMs2sa7jWwvW7ep4-136" target="vFInMMs2sa7jWwvW7ep4-137" edge="1">
          <mxGeometry width="50" height="50" relative="1" as="geometry">
            <mxPoint x="840" y="944" as="sourcePoint" />
            <mxPoint x="790" y="990" as="targetPoint" />
          </mxGeometry>
        </mxCell>
        <mxCell id="vFInMMs2sa7jWwvW7ep4-224" value="" style="endArrow=none;html=1;rounded=0;strokeWidth=1;shape=link;" parent="1" source="vFInMMs2sa7jWwvW7ep4-126" target="vFInMMs2sa7jWwvW7ep4-136" edge="1">
          <mxGeometry width="50" height="50" relative="1" as="geometry">
            <mxPoint x="775" y="950" as="sourcePoint" />
            <mxPoint x="775" y="989" as="targetPoint" />
          </mxGeometry>
        </mxCell>
        <mxCell id="vFInMMs2sa7jWwvW7ep4-225" value="" style="endArrow=none;html=1;rounded=0;strokeWidth=1;shape=link;" parent="1" source="vFInMMs2sa7jWwvW7ep4-137" target="vFInMMs2sa7jWwvW7ep4-140" edge="1">
          <mxGeometry width="50" height="50" relative="1" as="geometry">
            <mxPoint x="841" y="865" as="sourcePoint" />
            <mxPoint x="789" y="920" as="targetPoint" />
          </mxGeometry>
        </mxCell>
        <mxCell id="vFInMMs2sa7jWwvW7ep4-226" value="" style="endArrow=none;html=1;rounded=0;strokeWidth=1;shape=link;" parent="1" source="vFInMMs2sa7jWwvW7ep4-137" target="vFInMMs2sa7jWwvW7ep4-139" edge="1">
          <mxGeometry width="50" height="50" relative="1" as="geometry">
            <mxPoint x="760" y="1013" as="sourcePoint" />
            <mxPoint x="703" y="1051" as="targetPoint" />
          </mxGeometry>
        </mxCell>
        <mxCell id="vFInMMs2sa7jWwvW7ep4-227" value="" style="endArrow=none;html=1;rounded=0;strokeWidth=1;shape=link;" parent="1" source="vFInMMs2sa7jWwvW7ep4-136" target="vFInMMs2sa7jWwvW7ep4-140" edge="1">
          <mxGeometry width="50" height="50" relative="1" as="geometry">
            <mxPoint x="760" y="1003" as="sourcePoint" />
            <mxPoint x="708" y="1000" as="targetPoint" />
          </mxGeometry>
        </mxCell>
        <mxCell id="vFInMMs2sa7jWwvW7ep4-228" value="" style="endArrow=none;html=1;rounded=0;strokeWidth=1;shape=link;" parent="1" source="vFInMMs2sa7jWwvW7ep4-136" target="vFInMMs2sa7jWwvW7ep4-139" edge="1">
          <mxGeometry width="50" height="50" relative="1" as="geometry">
            <mxPoint x="765" y="950" as="sourcePoint" />
            <mxPoint x="695" y="1051" as="targetPoint" />
          </mxGeometry>
        </mxCell>
        <mxCell id="vFInMMs2sa7jWwvW7ep4-229" value="" style="endArrow=none;html=1;rounded=0;strokeWidth=1;shape=link;" parent="1" source="vFInMMs2sa7jWwvW7ep4-137" target="vFInMMs2sa7jWwvW7ep4-138" edge="1">
          <mxGeometry width="50" height="50" relative="1" as="geometry">
            <mxPoint x="760" y="946" as="sourcePoint" />
            <mxPoint x="701" y="989" as="targetPoint" />
          </mxGeometry>
        </mxCell>
        <mxCell id="vFInMMs2sa7jWwvW7ep4-230" value="" style="endArrow=none;html=1;rounded=0;strokeWidth=1;shape=link;" parent="1" source="vFInMMs2sa7jWwvW7ep4-136" target="vFInMMs2sa7jWwvW7ep4-138" edge="1">
          <mxGeometry width="50" height="50" relative="1" as="geometry">
            <mxPoint x="760" y="992" as="sourcePoint" />
            <mxPoint x="700" y="945" as="targetPoint" />
          </mxGeometry>
        </mxCell>
        <mxCell id="vFInMMs2sa7jWwvW7ep4-231" value="" style="endArrow=none;html=1;rounded=0;strokeWidth=1;shape=link;" parent="1" source="vFInMMs2sa7jWwvW7ep4-124" target="vFInMMs2sa7jWwvW7ep4-127" edge="1">
          <mxGeometry width="50" height="50" relative="1" as="geometry">
            <mxPoint x="760" y="935" as="sourcePoint" />
            <mxPoint x="708" y="935" as="targetPoint" />
          </mxGeometry>
        </mxCell>
        <mxCell id="vFInMMs2sa7jWwvW7ep4-232" value="" style="endArrow=none;html=1;rounded=0;strokeWidth=1;shape=link;" parent="1" source="vFInMMs2sa7jWwvW7ep4-124" target="vFInMMs2sa7jWwvW7ep4-126" edge="1">
          <mxGeometry width="50" height="50" relative="1" as="geometry">
            <mxPoint x="917" y="862" as="sourcePoint" />
            <mxPoint x="868" y="915" as="targetPoint" />
          </mxGeometry>
        </mxCell>
        <mxCell id="vFInMMs2sa7jWwvW7ep4-233" value="" style="endArrow=none;html=1;rounded=0;strokeWidth=1;shape=link;" parent="1" source="vFInMMs2sa7jWwvW7ep4-125" target="vFInMMs2sa7jWwvW7ep4-126" edge="1">
          <mxGeometry width="50" height="50" relative="1" as="geometry">
            <mxPoint x="910" y="850" as="sourcePoint" />
            <mxPoint x="870" y="850" as="targetPoint" />
          </mxGeometry>
        </mxCell>
        <mxCell id="vFInMMs2sa7jWwvW7ep4-235" value="" style="endArrow=none;html=1;rounded=0;strokeWidth=1;shape=link;" parent="1" source="vFInMMs2sa7jWwvW7ep4-125" target="vFInMMs2sa7jWwvW7ep4-122" edge="1">
          <mxGeometry width="50" height="50" relative="1" as="geometry">
            <mxPoint x="927" y="919" as="sourcePoint" />
            <mxPoint x="927" y="862" as="targetPoint" />
          </mxGeometry>
        </mxCell>
        <mxCell id="vFInMMs2sa7jWwvW7ep4-236" value="" style="endArrow=none;html=1;rounded=0;strokeWidth=1;shape=link;" parent="1" source="vFInMMs2sa7jWwvW7ep4-123" target="vFInMMs2sa7jWwvW7ep4-125" edge="1">
          <mxGeometry width="50" height="50" relative="1" as="geometry">
            <mxPoint x="937" y="929" as="sourcePoint" />
            <mxPoint x="990" y="865" as="targetPoint" />
          </mxGeometry>
        </mxCell>
        <mxCell id="vFInMMs2sa7jWwvW7ep4-237" value="" style="endArrow=none;html=1;rounded=0;strokeWidth=1;shape=link;" parent="1" source="vFInMMs2sa7jWwvW7ep4-122" target="vFInMMs2sa7jWwvW7ep4-124" edge="1">
          <mxGeometry width="50" height="50" relative="1" as="geometry">
            <mxPoint x="938" y="919" as="sourcePoint" />
            <mxPoint x="990" y="863" as="targetPoint" />
          </mxGeometry>
        </mxCell>
        <mxCell id="vFInMMs2sa7jWwvW7ep4-238" value="" style="endArrow=none;html=1;rounded=0;strokeWidth=1;shape=link;" parent="1" source="vFInMMs2sa7jWwvW7ep4-123" target="vFInMMs2sa7jWwvW7ep4-124" edge="1">
          <mxGeometry width="50" height="50" relative="1" as="geometry">
            <mxPoint x="990" y="850" as="sourcePoint" />
            <mxPoint x="944" y="850" as="targetPoint" />
          </mxGeometry>
        </mxCell>
        <mxCell id="vFInMMs2sa7jWwvW7ep4-239" value="" style="endArrow=none;html=1;rounded=0;strokeWidth=1;shape=link;" parent="1" source="vFInMMs2sa7jWwvW7ep4-125" target="vFInMMs2sa7jWwvW7ep4-127" edge="1">
          <mxGeometry width="50" height="50" relative="1" as="geometry">
            <mxPoint x="920" y="930" as="sourcePoint" />
            <mxPoint x="944" y="930" as="targetPoint" />
          </mxGeometry>
        </mxCell>
        <mxCell id="vFInMMs2sa7jWwvW7ep4-241" value="&lt;font style=&quot;font-size: 20px;&quot;&gt;&lt;b&gt;Base Site 1&lt;/b&gt;&lt;/font&gt;" style="text;html=1;align=center;verticalAlign=middle;resizable=0;points=[];autosize=1;strokeColor=none;fillColor=none;" parent="1" vertex="1">
          <mxGeometry x="277.08000000000004" y="633" width="130" height="40" as="geometry" />
        </mxCell>
        <mxCell id="vFInMMs2sa7jWwvW7ep4-242" value="&lt;b&gt;IP: 10.10.0.0/24&lt;/b&gt;" style="text;html=1;align=center;verticalAlign=middle;resizable=0;points=[];autosize=1;strokeColor=default;fillColor=none;shadow=0;" parent="1" vertex="1">
          <mxGeometry x="287.08000000000004" y="666.5" width="110" height="30" as="geometry" />
        </mxCell>
        <mxCell id="vFInMMs2sa7jWwvW7ep4-244" value="" style="rounded=0;whiteSpace=wrap;html=1;fillColor=none;" parent="1" vertex="1">
          <mxGeometry x="305.29" y="704" width="412.85" height="64" as="geometry" />
        </mxCell>
        <mxCell id="vFInMMs2sa7jWwvW7ep4-245" value="" style="rounded=0;whiteSpace=wrap;html=1;fillColor=none;" parent="1" vertex="1">
          <mxGeometry x="305.29" y="774" width="412.85" height="64" as="geometry" />
        </mxCell>
        <mxCell id="vFInMMs2sa7jWwvW7ep4-247" value="&lt;b style=&quot;&quot;&gt;&amp;nbsp; &amp;nbsp; &amp;nbsp; &amp;nbsp; &amp;nbsp; &amp;nbsp;VLAN: &lt;br&gt;474 - Users&lt;br&gt;397 - Servers&lt;br&gt;&lt;span style=&quot;&quot;&gt;&lt;span style=&quot;&quot;&gt;298 - Admin&lt;br&gt;184 - Management&amp;nbsp;&amp;nbsp;&amp;nbsp;&amp;nbsp;&lt;/span&gt;&lt;/span&gt;&amp;nbsp; &amp;nbsp;&amp;nbsp;&lt;span style=&quot;&quot;&gt;&lt;span style=&quot;&quot;&gt;&amp;nbsp;&amp;nbsp;&amp;nbsp;&amp;nbsp;&lt;/span&gt;&lt;/span&gt;&lt;/b&gt;" style="text;html=1;align=left;verticalAlign=middle;resizable=0;points=[];autosize=1;strokeColor=default;fillColor=none;" parent="1" vertex="1">
          <mxGeometry x="870" y="640" width="170" height="90" as="geometry" />
        </mxCell>
        <mxCell id="vFInMMs2sa7jWwvW7ep4-248" value="" style="shape=mxgraph.cisco.security.ios_firewall;html=1;pointerEvents=1;dashed=0;fillColor=#036897;strokeColor=#ffffff;strokeWidth=1;verticalLabelPosition=bottom;verticalAlign=top;align=center;outlineConnect=0;" parent="1" vertex="1">
          <mxGeometry x="1161.81" y="1140" width="24.24" height="40" as="geometry" />
        </mxCell>
        <mxCell id="vFInMMs2sa7jWwvW7ep4-249" value="" style="shape=mxgraph.cisco.routers.router;html=1;pointerEvents=1;dashed=0;fillColor=#036897;strokeColor=#ffffff;strokeWidth=1;verticalLabelPosition=bottom;verticalAlign=top;align=center;outlineConnect=0;" parent="1" vertex="1">
          <mxGeometry x="1157" y="1220" width="33.85" height="23" as="geometry" />
        </mxCell>
        <mxCell id="vFInMMs2sa7jWwvW7ep4-250" value="" style="shape=mxgraph.cisco.switches.layer_2_remote_switch;html=1;pointerEvents=1;dashed=0;fillColor=#036897;strokeColor=#ffffff;strokeWidth=1;verticalLabelPosition=bottom;verticalAlign=top;align=center;outlineConnect=0;" parent="1" vertex="1">
          <mxGeometry x="1153.73" y="1310" width="40.4" height="20" as="geometry" />
        </mxCell>
        <mxCell id="vFInMMs2sa7jWwvW7ep4-251" value="" style="shape=mxgraph.cisco.security.ios_firewall;html=1;pointerEvents=1;dashed=0;fillColor=#036897;strokeColor=#ffffff;strokeWidth=1;verticalLabelPosition=bottom;verticalAlign=top;align=center;outlineConnect=0;" parent="1" vertex="1">
          <mxGeometry x="1236.82" y="1140" width="24.24" height="40" as="geometry" />
        </mxCell>
        <mxCell id="vFInMMs2sa7jWwvW7ep4-252" value="" style="shape=mxgraph.cisco.routers.router;html=1;pointerEvents=1;dashed=0;fillColor=#036897;strokeColor=#ffffff;strokeWidth=1;verticalLabelPosition=bottom;verticalAlign=top;align=center;outlineConnect=0;" parent="1" vertex="1">
          <mxGeometry x="1232.01" y="1220" width="33.85" height="23" as="geometry" />
        </mxCell>
        <mxCell id="vFInMMs2sa7jWwvW7ep4-253" value="" style="shape=mxgraph.cisco.switches.layer_2_remote_switch;html=1;pointerEvents=1;dashed=0;fillColor=#036897;strokeColor=#ffffff;strokeWidth=1;verticalLabelPosition=bottom;verticalAlign=top;align=center;outlineConnect=0;" parent="1" vertex="1">
          <mxGeometry x="1228.74" y="1310" width="40.4" height="20" as="geometry" />
        </mxCell>
        <mxCell id="vFInMMs2sa7jWwvW7ep4-254" value="" style="shape=mxgraph.cisco.switches.layer_2_remote_switch;html=1;pointerEvents=1;dashed=0;fillColor=#036897;strokeColor=#ffffff;strokeWidth=1;verticalLabelPosition=bottom;verticalAlign=top;align=center;outlineConnect=0;" parent="1" vertex="1">
          <mxGeometry x="1070" y="1370" width="40.4" height="20" as="geometry" />
        </mxCell>
        <mxCell id="vFInMMs2sa7jWwvW7ep4-255" value="" style="shape=mxgraph.cisco.switches.layer_2_remote_switch;html=1;pointerEvents=1;dashed=0;fillColor=#036897;strokeColor=#ffffff;strokeWidth=1;verticalLabelPosition=bottom;verticalAlign=top;align=center;outlineConnect=0;" parent="1" vertex="1">
          <mxGeometry x="1070" y="1320" width="40.4" height="20" as="geometry" />
        </mxCell>
        <mxCell id="vFInMMs2sa7jWwvW7ep4-256" value="" style="shape=mxgraph.cisco.switches.layer_2_remote_switch;html=1;pointerEvents=1;dashed=0;fillColor=#036897;strokeColor=#ffffff;strokeWidth=1;verticalLabelPosition=bottom;verticalAlign=top;align=center;outlineConnect=0;" parent="1" vertex="1">
          <mxGeometry x="1072" y="1269" width="40.4" height="20" as="geometry" />
        </mxCell>
        <mxCell id="vFInMMs2sa7jWwvW7ep4-257" value="" style="verticalLabelPosition=bottom;sketch=0;aspect=fixed;html=1;verticalAlign=top;strokeColor=none;align=center;outlineConnect=0;shape=mxgraph.citrix.dns_server;" parent="1" vertex="1">
          <mxGeometry x="1314.85" y="1298.75" width="36.15" height="42.5" as="geometry" />
        </mxCell>
        <mxCell id="vFInMMs2sa7jWwvW7ep4-258" value="" style="shape=mxgraph.cisco.computers_and_peripherals.pc;html=1;pointerEvents=1;dashed=0;fillColor=#036897;strokeColor=#ffffff;strokeWidth=1;verticalLabelPosition=bottom;verticalAlign=top;align=center;outlineConnect=0;" parent="1" vertex="1">
          <mxGeometry x="1006.5699999999999" y="1264" width="33.43" height="30" as="geometry" />
        </mxCell>
        <mxCell id="vFInMMs2sa7jWwvW7ep4-259" value="" style="shape=mxgraph.cisco.computers_and_peripherals.pc;html=1;pointerEvents=1;dashed=0;fillColor=#036897;strokeColor=#ffffff;strokeWidth=1;verticalLabelPosition=bottom;verticalAlign=top;align=center;outlineConnect=0;" parent="1" vertex="1">
          <mxGeometry x="959.9999999999999" y="1264" width="33.43" height="30" as="geometry" />
        </mxCell>
        <mxCell id="vFInMMs2sa7jWwvW7ep4-260" value="" style="shape=mxgraph.cisco.computers_and_peripherals.pc;html=1;pointerEvents=1;dashed=0;fillColor=#036897;strokeColor=#ffffff;strokeWidth=1;verticalLabelPosition=bottom;verticalAlign=top;align=center;outlineConnect=0;" parent="1" vertex="1">
          <mxGeometry x="1006.5699999999999" y="1315" width="33.43" height="30" as="geometry" />
        </mxCell>
        <mxCell id="vFInMMs2sa7jWwvW7ep4-261" value="" style="shape=mxgraph.cisco.computers_and_peripherals.pc;html=1;pointerEvents=1;dashed=0;fillColor=#036897;strokeColor=#ffffff;strokeWidth=1;verticalLabelPosition=bottom;verticalAlign=top;align=center;outlineConnect=0;" parent="1" vertex="1">
          <mxGeometry x="959.9999999999999" y="1315" width="33.43" height="30" as="geometry" />
        </mxCell>
        <mxCell id="vFInMMs2sa7jWwvW7ep4-262" value="" style="shape=mxgraph.cisco.computers_and_peripherals.pc;html=1;pointerEvents=1;dashed=0;fillColor=#036897;strokeColor=#ffffff;strokeWidth=1;verticalLabelPosition=bottom;verticalAlign=top;align=center;outlineConnect=0;" parent="1" vertex="1">
          <mxGeometry x="1006.5699999999999" y="1365" width="33.43" height="30" as="geometry" />
        </mxCell>
        <mxCell id="vFInMMs2sa7jWwvW7ep4-263" value="" style="shape=mxgraph.cisco.computers_and_peripherals.pc;html=1;pointerEvents=1;dashed=0;fillColor=#036897;strokeColor=#ffffff;strokeWidth=1;verticalLabelPosition=bottom;verticalAlign=top;align=center;outlineConnect=0;" parent="1" vertex="1">
          <mxGeometry x="959.9999999999999" y="1365" width="33.43" height="30" as="geometry" />
        </mxCell>
        <mxCell id="vFInMMs2sa7jWwvW7ep4-264" value="" style="endArrow=none;html=1;rounded=0;strokeWidth=1;shape=link;" parent="1" source="vFInMMs2sa7jWwvW7ep4-248" target="vFInMMs2sa7jWwvW7ep4-249" edge="1">
          <mxGeometry width="50" height="50" relative="1" as="geometry">
            <mxPoint x="840" y="964" as="sourcePoint" />
            <mxPoint x="790" y="1010" as="targetPoint" />
          </mxGeometry>
        </mxCell>
        <mxCell id="vFInMMs2sa7jWwvW7ep4-265" value="" style="endArrow=none;html=1;rounded=0;strokeWidth=1;shape=link;" parent="1" source="vFInMMs2sa7jWwvW7ep4-251" target="vFInMMs2sa7jWwvW7ep4-249" edge="1">
          <mxGeometry width="50" height="50" relative="1" as="geometry">
            <mxPoint x="1184" y="1190" as="sourcePoint" />
            <mxPoint x="1184" y="1230" as="targetPoint" />
          </mxGeometry>
        </mxCell>
        <mxCell id="vFInMMs2sa7jWwvW7ep4-266" value="" style="endArrow=none;html=1;rounded=0;strokeWidth=1;shape=link;" parent="1" source="vFInMMs2sa7jWwvW7ep4-252" target="vFInMMs2sa7jWwvW7ep4-251" edge="1">
          <mxGeometry width="50" height="50" relative="1" as="geometry">
            <mxPoint x="1247" y="1182" as="sourcePoint" />
            <mxPoint x="1196" y="1230" as="targetPoint" />
          </mxGeometry>
        </mxCell>
        <mxCell id="vFInMMs2sa7jWwvW7ep4-267" value="" style="endArrow=none;html=1;rounded=0;strokeWidth=1;shape=link;" parent="1" source="vFInMMs2sa7jWwvW7ep4-252" target="vFInMMs2sa7jWwvW7ep4-248" edge="1">
          <mxGeometry width="50" height="50" relative="1" as="geometry">
            <mxPoint x="1259" y="1230" as="sourcePoint" />
            <mxPoint x="1259" y="1190" as="targetPoint" />
          </mxGeometry>
        </mxCell>
        <mxCell id="vFInMMs2sa7jWwvW7ep4-268" value="" style="endArrow=none;html=1;rounded=0;strokeWidth=1;shape=link;" parent="1" source="vFInMMs2sa7jWwvW7ep4-252" target="vFInMMs2sa7jWwvW7ep4-249" edge="1">
          <mxGeometry width="50" height="50" relative="1" as="geometry">
            <mxPoint x="1247" y="1182" as="sourcePoint" />
            <mxPoint x="1196" y="1230" as="targetPoint" />
          </mxGeometry>
        </mxCell>
        <mxCell id="vFInMMs2sa7jWwvW7ep4-270" value="" style="endArrow=none;html=1;rounded=0;strokeWidth=1;shape=link;" parent="1" source="vFInMMs2sa7jWwvW7ep4-252" target="vFInMMs2sa7jWwvW7ep4-250" edge="1">
          <mxGeometry width="50" height="50" relative="1" as="geometry">
            <mxPoint x="1242" y="1242" as="sourcePoint" />
            <mxPoint x="1201" y="1242" as="targetPoint" />
          </mxGeometry>
        </mxCell>
        <mxCell id="vFInMMs2sa7jWwvW7ep4-271" value="" style="endArrow=none;html=1;rounded=0;strokeWidth=1;shape=link;" parent="1" source="vFInMMs2sa7jWwvW7ep4-249" target="vFInMMs2sa7jWwvW7ep4-253" edge="1">
          <mxGeometry width="50" height="50" relative="1" as="geometry">
            <mxPoint x="1249" y="1253" as="sourcePoint" />
            <mxPoint x="1192" y="1320" as="targetPoint" />
          </mxGeometry>
        </mxCell>
        <mxCell id="vFInMMs2sa7jWwvW7ep4-272" value="" style="endArrow=none;html=1;rounded=0;strokeWidth=1;shape=link;" parent="1" source="vFInMMs2sa7jWwvW7ep4-249" target="vFInMMs2sa7jWwvW7ep4-250" edge="1">
          <mxGeometry width="50" height="50" relative="1" as="geometry">
            <mxPoint x="1194" y="1253" as="sourcePoint" />
            <mxPoint x="1250" y="1320" as="targetPoint" />
          </mxGeometry>
        </mxCell>
        <mxCell id="vFInMMs2sa7jWwvW7ep4-273" value="" style="endArrow=none;html=1;rounded=0;strokeWidth=1;shape=link;" parent="1" source="vFInMMs2sa7jWwvW7ep4-252" target="vFInMMs2sa7jWwvW7ep4-253" edge="1">
          <mxGeometry width="50" height="50" relative="1" as="geometry">
            <mxPoint x="1184" y="1253" as="sourcePoint" />
            <mxPoint x="1184" y="1320" as="targetPoint" />
          </mxGeometry>
        </mxCell>
        <mxCell id="vFInMMs2sa7jWwvW7ep4-274" value="" style="endArrow=none;html=1;rounded=0;strokeWidth=1;shape=link;" parent="1" source="vFInMMs2sa7jWwvW7ep4-253" target="vFInMMs2sa7jWwvW7ep4-250" edge="1">
          <mxGeometry width="50" height="50" relative="1" as="geometry">
            <mxPoint x="1259" y="1253" as="sourcePoint" />
            <mxPoint x="1259" y="1320" as="targetPoint" />
          </mxGeometry>
        </mxCell>
        <mxCell id="vFInMMs2sa7jWwvW7ep4-275" value="" style="endArrow=none;html=1;rounded=0;strokeWidth=1;shape=link;" parent="1" source="vFInMMs2sa7jWwvW7ep4-250" target="vFInMMs2sa7jWwvW7ep4-256" edge="1">
          <mxGeometry width="50" height="50" relative="1" as="geometry">
            <mxPoint x="1239" y="1330" as="sourcePoint" />
            <mxPoint x="1204" y="1330" as="targetPoint" />
          </mxGeometry>
        </mxCell>
        <mxCell id="vFInMMs2sa7jWwvW7ep4-276" value="" style="endArrow=none;html=1;rounded=0;strokeWidth=1;shape=link;" parent="1" source="vFInMMs2sa7jWwvW7ep4-250" target="vFInMMs2sa7jWwvW7ep4-255" edge="1">
          <mxGeometry width="50" height="50" relative="1" as="geometry">
            <mxPoint x="1164" y="1320" as="sourcePoint" />
            <mxPoint x="1122" y="1299" as="targetPoint" />
          </mxGeometry>
        </mxCell>
        <mxCell id="vFInMMs2sa7jWwvW7ep4-277" value="" style="endArrow=none;html=1;rounded=0;strokeWidth=1;shape=link;" parent="1" source="vFInMMs2sa7jWwvW7ep4-250" target="vFInMMs2sa7jWwvW7ep4-254" edge="1">
          <mxGeometry width="50" height="50" relative="1" as="geometry">
            <mxPoint x="1164" y="1332" as="sourcePoint" />
            <mxPoint x="1120" y="1338" as="targetPoint" />
          </mxGeometry>
        </mxCell>
        <mxCell id="vFInMMs2sa7jWwvW7ep4-283" value="" style="endArrow=none;html=1;rounded=0;" parent="1" source="vFInMMs2sa7jWwvW7ep4-253" target="vFInMMs2sa7jWwvW7ep4-257" edge="1">
          <mxGeometry width="50" height="50" relative="1" as="geometry">
            <mxPoint x="1210" y="1260" as="sourcePoint" />
            <mxPoint x="1260" y="1210" as="targetPoint" />
          </mxGeometry>
        </mxCell>
        <mxCell id="vFInMMs2sa7jWwvW7ep4-284" value="" style="rounded=0;whiteSpace=wrap;html=1;fillColor=none;" parent="1" vertex="1">
          <mxGeometry x="933.85" y="1130" width="436.15" height="300" as="geometry" />
        </mxCell>
        <mxCell id="vFInMMs2sa7jWwvW7ep4-286" value="&lt;font style=&quot;font-size: 20px;&quot;&gt;&lt;b&gt;Base Site 3&lt;/b&gt;&lt;/font&gt;" style="text;html=1;align=center;verticalAlign=middle;resizable=0;points=[];autosize=1;strokeColor=none;fillColor=none;" parent="1" vertex="1">
          <mxGeometry x="927.12" y="1127.25" width="130" height="40" as="geometry" />
        </mxCell>
        <mxCell id="vFInMMs2sa7jWwvW7ep4-287" value="&lt;b&gt;IP: 10.30.0.0/24&lt;/b&gt;" style="text;html=1;align=center;verticalAlign=middle;resizable=0;points=[];autosize=1;strokeColor=default;fillColor=none;shadow=0;" parent="1" vertex="1">
          <mxGeometry x="937.12" y="1160.75" width="110" height="30" as="geometry" />
        </mxCell>
        <mxCell id="vFInMMs2sa7jWwvW7ep4-288" value="&lt;b style=&quot;&quot;&gt;&amp;nbsp; &amp;nbsp; &amp;nbsp; &amp;nbsp; &amp;nbsp; &amp;nbsp;VLAN: &lt;br&gt;84&amp;nbsp;- Users&lt;br&gt;925 - Servers&lt;br&gt;&lt;span style=&quot;&quot;&gt;&lt;span style=&quot;white-space: pre;&quot;&gt;712 - Admin&lt;br&gt;762 - Management&amp;nbsp;&amp;nbsp;&amp;nbsp;&amp;nbsp;&lt;/span&gt;&lt;/span&gt;&amp;nbsp; &amp;nbsp;&amp;nbsp;&lt;span style=&quot;&quot;&gt;&lt;span style=&quot;white-space: pre;&quot;&gt;&amp;nbsp;&amp;nbsp;&amp;nbsp;&amp;nbsp;&lt;/span&gt;&lt;/span&gt;&lt;/b&gt;" style="text;html=1;align=left;verticalAlign=middle;resizable=0;points=[];autosize=1;strokeColor=none;fillColor=none;" parent="1" vertex="1">
          <mxGeometry x="1247.92" y="1341.25" width="170" height="90" as="geometry" />
        </mxCell>
      </root>
    </mxGraphModel>
  </diagram>
</mxfile>
